<svg xmlns="http://www.w3.org/2000/svg" width="218" height="31" fill="none" viewBox="0 0 218 31"><path fill="#8D3FFF" d="M20.0168 14.76C21.4568 15.4533 22.5501 16.3733 23.2968 17.52C24.0435 18.6667 24.4168 20 24.4168 21.52C24.4168 23.3067 23.9501 24.8933 23.0168 26.28C22.1101 27.64 20.7501 28.7067 18.9368 29.48C17.1501 30.2533 15.0035 30.64 12.4968 30.64C9.99013 30.64 7.84346 30.2533 6.05679 29.48C4.27013 28.7067 2.91013 27.64 1.97679 26.28C1.07013 24.8933 0.616792 23.3067 0.616792 21.52C0.616792 20 0.990125 18.6667 1.73679 17.52C2.48346 16.3733 3.56346 15.4533 4.97679 14.76C2.65679 13.5333 1.49679 11.5867 1.49679 8.92C1.49679 7.32 1.93679 5.92 2.81679 4.72C3.72346 3.52 5.00346 2.6 6.65679 1.96C8.31013 1.29333 10.2568 0.96 12.4968 0.96C14.7368 0.96 16.6835 1.29333 18.3368 1.96C19.9901 2.6 21.2701 3.52 22.1768 4.72C23.0835 5.92 23.5368 7.32 23.5368 8.92C23.5368 11.5867 22.3635 13.5333 20.0168 14.76ZM7.49679 9.44C7.49679 10.48 7.95013 11.3333 8.85679 12C9.79013 12.64 11.0035 12.96 12.4968 12.96C14.0168 12.96 15.2301 12.64 16.1368 12C17.0435 11.3333 17.4968 10.48 17.4968 9.44V9.12C17.4968 7.94667 17.0701 7.01333 16.2168 6.32C15.3901 5.6 14.1501 5.24 12.4968 5.24C10.8701 5.24 9.63013 5.6 8.77679 6.32C7.92346 7.01333 7.49679 7.94667 7.49679 9.12V9.44ZM18.3768 21.32C18.3768 19.9867 17.8835 18.9333 16.8968 18.16C15.9101 17.3867 14.4435 17 12.4968 17C10.5501 17 9.08346 17.3867 8.09679 18.16C7.13679 18.9333 6.65679 19.9867 6.65679 21.32V21.72C6.65679 23.08 7.17679 24.1867 8.21679 25.04C9.28346 25.8933 10.7101 26.32 12.4968 26.32C14.2835 26.32 15.7101 25.8933 16.7768 25.04C17.8435 24.1867 18.3768 23.08 18.3768 21.72V21.32ZM40.663 11.84C43.943 11.84 46.463 12.68 48.223 14.36C49.983 16.0133 50.863 18.24 50.863 21.04C50.863 22.9333 50.3964 24.6133 49.463 26.08C48.5297 27.52 47.2097 28.64 45.503 29.44C43.823 30.24 41.8764 30.64 39.663 30.64C35.6897 30.64 32.6497 29.4267 30.543 27C28.463 24.5467 27.423 21.0533 27.423 16.52C27.423 11.64 28.4897 7.82667 30.623 5.08C32.7564 2.33333 35.823 0.96 39.823 0.96C41.983 0.96 43.8497 1.32 45.423 2.04C46.9964 2.76 48.223 3.72 49.103 4.92C49.983 6.09333 50.503 7.37333 50.663 8.76H44.383C43.6897 6.49333 42.0897 5.36 39.583 5.36C37.503 5.36 35.9697 6.2 34.983 7.88C33.9964 9.53333 33.503 11.5333 33.503 13.88V14.76C34.1697 13.88 35.1164 13.1733 36.343 12.64C37.5697 12.1067 39.0097 11.84 40.663 11.84ZM44.903 20.88C44.903 19.4133 44.423 18.28 43.463 17.48C42.5297 16.6533 41.1964 16.24 39.463 16.24C37.783 16.24 36.463 16.6533 35.503 17.48C34.5697 18.28 34.103 19.4133 34.103 20.88V21.6C34.103 23.0133 34.583 24.1467 35.543 25C36.5297 25.8267 37.8364 26.24 39.463 26.24C41.143 26.24 42.463 25.8267 43.423 25C44.4097 24.1467 44.903 23.0133 44.903 21.6V20.88ZM75.7299 1.6V6.04L62.8499 30H56.4899L69.3299 6.2H53.3299V1.6H75.7299Z"/><path fill="#fff" d="M93.3762 30.64C90.3895 30.64 87.8428 30.0267 85.7362 28.8C83.6562 27.5467 82.0695 25.8 80.9762 23.56C79.9095 21.32 79.3762 18.7333 79.3762 15.8C79.3762 12.8667 79.9095 10.28 80.9762 8.04C82.0695 5.8 83.6562 4.06667 85.7362 2.84C87.8428 1.58667 90.3895 0.96 93.3762 0.96C95.9895 0.96 98.2828 1.41333 100.256 2.32C102.23 3.22666 103.803 4.53333 104.976 6.24C106.15 7.92 106.856 9.89333 107.096 12.16H101.016C100.616 10.1333 99.7628 8.53333 98.4562 7.36C97.1762 6.16 95.4828 5.56 93.3762 5.56C90.8428 5.56 88.9095 6.42667 87.5762 8.16C86.2428 9.86667 85.5762 12.12 85.5762 14.92V16.68C85.5762 19.48 86.2428 21.7467 87.5762 23.48C88.9362 25.1867 90.8695 26.04 93.3762 26.04C95.5628 26.04 97.3095 25.4133 98.6162 24.16C99.9495 22.88 100.776 21.16 101.096 19H107.176C106.99 21.3467 106.31 23.4 105.136 25.16C103.963 26.92 102.376 28.28 100.376 29.24C98.3762 30.1733 96.0428 30.64 93.3762 30.64ZM120.831 8.08C123.978 8.08 126.378 8.76 128.031 10.12C129.711 11.4533 130.551 13.28 130.551 15.6V30H125.231V27.56C124.698 28.52 123.871 29.28 122.751 29.84C121.658 30.3733 120.271 30.64 118.591 30.64C116.111 30.64 114.111 30.08 112.591 28.96C111.071 27.8133 110.311 26.1467 110.311 23.96C110.311 21.7467 111.138 20.0533 112.791 18.88C114.471 17.7067 116.898 17.12 120.071 17.12H124.951V15.68C124.951 13.2267 123.618 12 120.951 12C119.751 12 118.831 12.28 118.191 12.84C117.551 13.3733 117.178 14.04 117.071 14.84H111.071C111.311 12.7067 112.284 11.0533 113.991 9.88C115.698 8.68 117.978 8.08 120.831 8.08ZM120.071 26.48C121.538 26.48 122.711 26.1467 123.591 25.48C124.498 24.7867 124.951 23.7867 124.951 22.48V20.84H120.071C118.764 20.84 117.751 21.08 117.031 21.56C116.311 22.0133 115.951 22.6533 115.951 23.48V23.84C115.951 24.72 116.311 25.3867 117.031 25.84C117.778 26.2667 118.791 26.48 120.071 26.48ZM145.043 30.64C141.55 30.64 138.963 29.9867 137.283 28.68C135.603 27.3733 134.763 25.5733 134.763 23.28H140.403C140.456 24.3467 140.87 25.1867 141.643 25.8C142.443 26.3867 143.63 26.68 145.203 26.68C146.483 26.68 147.483 26.48 148.203 26.08C148.95 25.68 149.323 25.0667 149.323 24.24V23.96C149.323 23.3733 149.096 22.92 148.643 22.6C148.216 22.28 147.51 22.0267 146.523 21.84L141.883 20.96C139.51 20.5067 137.763 19.8 136.643 18.84C135.55 17.8533 135.003 16.52 135.003 14.84C135.003 12.84 135.816 11.2267 137.443 10C139.07 8.74667 141.376 8.12 144.363 8.12C146.603 8.12 148.47 8.44 149.963 9.08C151.456 9.69333 152.563 10.52 153.283 11.56C154.003 12.6 154.376 13.7333 154.403 14.96H148.603C148.496 14.08 148.083 13.36 147.363 12.8C146.643 12.24 145.576 11.96 144.163 11.96C143.043 11.96 142.163 12.1867 141.523 12.64C140.91 13.0667 140.603 13.6133 140.603 14.28V14.6C140.603 15.6667 141.563 16.3867 143.483 16.76L147.843 17.6C150.27 18.0533 152.043 18.7467 153.163 19.68C154.31 20.5867 154.883 21.9467 154.883 23.76C154.883 26 154.016 27.7067 152.283 28.88C150.576 30.0533 148.163 30.64 145.043 30.64ZM159.448 8.72H165.048V30H159.448V8.72ZM159.448 0.559998H165.048V5.32H159.448V0.559998ZM183.166 8.08C184.686 8.08 186.046 8.41333 187.246 9.08C188.446 9.72 189.379 10.64 190.046 11.84C190.739 13.04 191.086 14.44 191.086 16.04V30H185.486V17.72C185.486 15.9867 185.099 14.6933 184.326 13.84C183.579 12.9867 182.526 12.56 181.166 12.56C179.779 12.56 178.699 12.9867 177.926 13.84C177.179 14.6933 176.806 15.9867 176.806 17.72V30H171.206V8.72H176.566V11.76C177.073 10.6667 177.873 9.78667 178.966 9.12C180.086 8.42667 181.486 8.08 183.166 8.08ZM206.471 30.64C204.124 30.64 202.111 30.1733 200.431 29.24C198.751 28.28 197.471 26.96 196.591 25.28C195.738 23.5733 195.311 21.6 195.311 19.36C195.311 17.12 195.738 15.16 196.591 13.48C197.471 11.7733 198.751 10.4533 200.431 9.52C202.111 8.56 204.124 8.08 206.471 8.08C208.791 8.08 210.791 8.56 212.471 9.52C214.151 10.4533 215.418 11.7733 216.271 13.48C217.151 15.16 217.591 17.12 217.591 19.36C217.591 21.6 217.151 23.5733 216.271 25.28C215.418 26.96 214.151 28.28 212.471 29.24C210.791 30.1733 208.791 30.64 206.471 30.64ZM206.471 26.28C208.151 26.28 209.458 25.72 210.391 24.6C211.351 23.4533 211.831 21.8533 211.831 19.8V18.88C211.831 16.8 211.351 15.2133 210.391 14.12C209.458 13 208.151 12.44 206.471 12.44C204.764 12.44 203.431 13 202.471 14.12C201.538 15.2133 201.071 16.8 201.071 18.88V19.8C201.071 21.8533 201.551 23.4533 202.511 24.6C203.471 25.72 204.791 26.28 206.471 26.28Z"/></svg>