<svg xmlns="http://www.w3.org/2000/svg" width="830" height="193" fill="none" viewBox="0 0 830 193"><path fill="#fff" d="M291.6 53L306.66 12.86H312.96L327.96 53H321.96L318.9 44.24H300.66L297.6 53H291.6ZM302.4 39.38H317.16L309.78 18.56L302.4 39.38ZM333.119 53V12.92H345.839C349.119 12.92 351.999 13.22 354.479 13.82C356.999 14.38 358.959 15.5 360.359 17.18C361.799 18.82 362.519 21.24 362.519 24.44C362.519 26.24 362.239 27.92 361.679 29.48C361.119 31.04 360.039 32.36 358.439 33.44C356.879 34.52 354.539 35.28 351.419 35.72L363.839 53H356.939L344.759 36.14H338.759V53H333.119ZM338.759 31.4H346.259C348.219 31.4 349.979 31.26 351.539 30.98C353.139 30.7 354.399 30.08 355.319 29.12C356.279 28.12 356.759 26.6 356.759 24.56C356.759 22.48 356.279 20.96 355.319 20C354.399 19.04 353.139 18.42 351.539 18.14C349.979 17.82 348.219 17.66 346.259 17.66H338.759V31.4ZM396.805 53L383.065 12.92H389.245L400.105 46.4L411.025 12.92H417.205L403.405 53H396.805ZM431.844 53.72C428.724 53.72 426.084 53.04 423.924 51.68C421.764 50.28 420.104 48.42 418.944 46.1C417.824 43.74 417.264 41.1 417.264 38.18C417.264 35.02 417.904 32.3 419.184 30.02C420.464 27.7 422.184 25.92 424.344 24.68C426.544 23.4 429.004 22.76 431.724 22.76C434.084 22.76 436.164 23.24 437.964 24.2C439.764 25.12 441.244 26.38 442.404 27.98C443.604 29.54 444.464 31.32 444.984 33.32C445.544 35.32 445.744 37.38 445.584 39.5H422.664C422.744 41.98 423.284 43.94 424.284 45.38C425.324 46.82 426.544 47.84 427.944 48.44C429.344 49 430.644 49.28 431.844 49.28C433.524 49.28 434.924 49.02 436.044 48.5C437.204 47.94 438.124 47.22 438.804 46.34L443.664 47.78C442.584 49.5 441.044 50.92 439.044 52.04C437.044 53.16 434.644 53.72 431.844 53.72ZM422.724 35.48H440.244C440.244 34.08 439.884 32.74 439.164 31.46C438.484 30.18 437.504 29.14 436.224 28.34C434.984 27.5 433.484 27.08 431.724 27.08C430.244 27.08 428.844 27.36 427.524 27.92C426.204 28.48 425.104 29.38 424.224 30.62C423.384 31.86 422.884 33.48 422.724 35.48ZM451.528 53V12.92H456.568V27.74C457.408 26.34 458.588 25.16 460.108 24.2C461.628 23.24 463.648 22.76 466.168 22.76C469.768 22.76 472.308 23.82 473.788 25.94C475.268 28.02 476.008 30.76 476.008 34.16V53H470.968V35.66C470.968 34.14 470.828 32.74 470.548 31.46C470.268 30.14 469.648 29.08 468.688 28.28C467.768 27.48 466.348 27.08 464.428 27.08C461.988 27.08 460.068 27.92 458.668 29.6C457.268 31.24 456.568 33.66 456.568 36.86V53H451.528ZM489.442 17.6C488.442 17.6 487.562 17.24 486.802 16.52C486.082 15.76 485.722 14.86 485.722 13.82C485.722 12.78 486.082 11.9 486.802 11.18C487.562 10.46 488.442 10.1 489.442 10.1C490.482 10.1 491.362 10.46 492.082 11.18C492.842 11.9 493.222 12.78 493.222 13.82C493.222 14.86 492.842 15.76 492.082 16.52C491.362 17.24 490.482 17.6 489.442 17.6ZM486.922 53V27.26H482.782V23.24H491.962V53H486.922ZM512.921 53.72C510.081 53.72 507.621 53.06 505.541 51.74C503.461 50.38 501.861 48.54 500.741 46.22C499.621 43.9 499.061 41.24 499.061 38.24C499.061 35.28 499.641 32.64 500.801 30.32C502.001 27.96 503.681 26.12 505.841 24.8C508.001 23.44 510.541 22.76 513.461 22.76C516.141 22.76 518.441 23.42 520.361 24.74C522.281 26.06 523.721 27.64 524.681 29.48L520.061 31.16C519.421 29.96 518.481 29 517.241 28.28C516.001 27.56 514.621 27.2 513.101 27.2C511.621 27.2 510.221 27.6 508.901 28.4C507.581 29.16 506.521 30.36 505.721 32C504.921 33.6 504.521 35.66 504.521 38.18C504.521 40.66 504.921 42.74 505.721 44.42C506.561 46.06 507.621 47.28 508.901 48.08C510.221 48.88 511.621 49.28 513.101 49.28C514.741 49.28 516.161 48.92 517.361 48.2C518.601 47.44 519.541 46.5 520.181 45.38L524.801 47.06C523.681 48.98 522.081 50.58 520.001 51.86C517.921 53.1 515.561 53.72 512.921 53.72ZM538.001 53C536.121 53 534.661 52.82 533.621 52.46C532.621 52.06 531.921 51.32 531.521 50.24C531.161 49.16 530.981 47.6 530.981 45.56V12.98H536.021V44.72C536.021 46.24 536.181 47.26 536.501 47.78C536.821 48.3 537.681 48.56 539.081 48.56H540.221V53H538.001ZM557.997 53.72C554.877 53.72 552.237 53.04 550.077 51.68C547.917 50.28 546.257 48.42 545.097 46.1C543.977 43.74 543.417 41.1 543.417 38.18C543.417 35.02 544.057 32.3 545.337 30.02C546.617 27.7 548.337 25.92 550.497 24.68C552.697 23.4 555.157 22.76 557.877 22.76C560.237 22.76 562.317 23.24 564.117 24.2C565.917 25.12 567.397 26.38 568.557 27.98C569.757 29.54 570.617 31.32 571.137 33.32C571.697 35.32 571.897 37.38 571.737 39.5H548.817C548.897 41.98 549.437 43.94 550.437 45.38C551.477 46.82 552.697 47.84 554.097 48.44C555.497 49 556.797 49.28 557.997 49.28C559.677 49.28 561.077 49.02 562.197 48.5C563.357 47.94 564.277 47.22 564.957 46.34L569.817 47.78C568.737 49.5 567.197 50.92 565.197 52.04C563.197 53.16 560.797 53.72 557.997 53.72ZM548.877 35.48H566.397C566.397 34.08 566.037 32.74 565.317 31.46C564.637 30.18 563.657 29.14 562.377 28.34C561.137 27.5 559.637 27.08 557.877 27.08C556.397 27.08 554.997 27.36 553.677 27.92C552.357 28.48 551.257 29.38 550.377 30.62C549.537 31.86 549.037 33.48 548.877 35.48ZM594.857 53V12.92H607.577C610.857 12.92 613.737 13.22 616.217 13.82C618.737 14.38 620.697 15.5 622.097 17.18C623.537 18.82 624.257 21.24 624.257 24.44C624.257 26.24 623.977 27.92 623.417 29.48C622.857 31.04 621.777 32.36 620.177 33.44C618.617 34.52 616.277 35.28 613.157 35.72L625.577 53H618.677L606.497 36.14H600.497V53H594.857ZM600.497 31.4H607.997C609.957 31.4 611.717 31.26 613.277 30.98C614.877 30.7 616.137 30.08 617.057 29.12C618.017 28.12 618.497 26.6 618.497 24.56C618.497 22.48 618.017 20.96 617.057 20C616.137 19.04 614.877 18.42 613.277 18.14C611.717 17.82 609.957 17.66 607.997 17.66H600.497V31.4ZM644.247 53.72C641.127 53.72 638.487 53.04 636.327 51.68C634.167 50.28 632.507 48.42 631.347 46.1C630.227 43.74 629.667 41.1 629.667 38.18C629.667 35.02 630.307 32.3 631.587 30.02C632.867 27.7 634.587 25.92 636.747 24.68C638.947 23.4 641.407 22.76 644.127 22.76C646.487 22.76 648.567 23.24 650.367 24.2C652.167 25.12 653.647 26.38 654.807 27.98C656.007 29.54 656.867 31.32 657.387 33.32C657.947 35.32 658.147 37.38 657.987 39.5H635.067C635.147 41.98 635.687 43.94 636.687 45.38C637.727 46.82 638.947 47.84 640.347 48.44C641.747 49 643.047 49.28 644.247 49.28C645.927 49.28 647.327 49.02 648.447 48.5C649.607 47.94 650.527 47.22 651.207 46.34L656.067 47.78C654.987 49.5 653.447 50.92 651.447 52.04C649.447 53.16 647.047 53.72 644.247 53.72ZM635.127 35.48H652.647C652.647 34.08 652.287 32.74 651.567 31.46C650.887 30.18 649.907 29.14 648.627 28.34C647.387 27.5 645.887 27.08 644.127 27.08C642.647 27.08 641.247 27.36 639.927 27.92C638.607 28.48 637.507 29.38 636.627 30.62C635.787 31.86 635.287 33.48 635.127 35.48ZM675.87 53.72C673.03 53.72 670.57 53.06 668.49 51.74C666.41 50.38 664.81 48.54 663.69 46.22C662.57 43.9 662.01 41.24 662.01 38.24C662.01 35.28 662.59 32.64 663.75 30.32C664.95 27.96 666.63 26.12 668.79 24.8C670.95 23.44 673.49 22.76 676.41 22.76C679.09 22.76 681.39 23.42 683.31 24.74C685.23 26.06 686.67 27.64 687.63 29.48L683.01 31.16C682.37 29.96 681.43 29 680.19 28.28C678.95 27.56 677.57 27.2 676.05 27.2C674.57 27.2 673.17 27.6 671.85 28.4C670.53 29.16 669.47 30.36 668.67 32C667.87 33.6 667.47 35.66 667.47 38.18C667.47 40.66 667.87 42.74 668.67 44.42C669.51 46.06 670.57 47.28 671.85 48.08C673.17 48.88 674.57 49.28 676.05 49.28C677.69 49.28 679.11 48.92 680.31 48.2C681.55 47.44 682.49 46.5 683.13 45.38L687.75 47.06C686.63 48.98 685.03 50.58 682.95 51.86C680.87 53.1 678.51 53.72 675.87 53.72ZM706.29 53.72C704.57 53.72 702.87 53.42 701.19 52.82C699.51 52.22 697.97 51.3 696.57 50.06C695.21 48.78 694.11 47.16 693.27 45.2C692.43 43.24 692.01 40.92 692.01 38.24C692.01 35.56 692.43 33.24 693.27 31.28C694.11 29.32 695.21 27.72 696.57 26.48C697.97 25.2 699.51 24.26 701.19 23.66C702.87 23.06 704.57 22.76 706.29 22.76C708.01 22.76 709.71 23.06 711.39 23.66C713.11 24.26 714.65 25.2 716.01 26.48C717.41 27.72 718.51 29.32 719.31 31.28C720.15 33.24 720.57 35.56 720.57 38.24C720.57 40.92 720.15 43.24 719.31 45.2C718.51 47.16 717.41 48.78 716.01 50.06C714.65 51.3 713.11 52.22 711.39 52.82C709.71 53.42 708.01 53.72 706.29 53.72ZM706.29 49.28C707.73 49.28 709.13 48.9 710.49 48.14C711.85 47.34 712.97 46.14 713.85 44.54C714.73 42.9 715.17 40.8 715.17 38.24C715.17 35.68 714.73 33.6 713.85 32C712.97 30.36 711.85 29.16 710.49 28.4C709.13 27.6 707.73 27.2 706.29 27.2C704.89 27.2 703.49 27.6 702.09 28.4C700.73 29.16 699.61 30.36 698.73 32C697.85 33.6 697.41 35.68 697.41 38.24C697.41 40.8 697.85 42.9 698.73 44.54C699.61 46.14 700.73 47.34 702.09 48.14C703.49 48.9 704.89 49.28 706.29 49.28ZM733.456 53L722.836 23.24H728.296L736.096 46.4L743.836 23.24H749.296L738.676 53H733.456ZM766.18 53.72C763.06 53.72 760.42 53.04 758.26 51.68C756.1 50.28 754.44 48.42 753.28 46.1C752.16 43.74 751.6 41.1 751.6 38.18C751.6 35.02 752.24 32.3 753.52 30.02C754.8 27.7 756.52 25.92 758.68 24.68C760.88 23.4 763.34 22.76 766.06 22.76C768.42 22.76 770.5 23.24 772.3 24.2C774.1 25.12 775.58 26.38 776.74 27.98C777.94 29.54 778.8 31.32 779.32 33.32C779.88 35.32 780.08 37.38 779.92 39.5H757C757.08 41.98 757.62 43.94 758.62 45.38C759.66 46.82 760.88 47.84 762.28 48.44C763.68 49 764.98 49.28 766.18 49.28C767.86 49.28 769.26 49.02 770.38 48.5C771.54 47.94 772.46 47.22 773.14 46.34L778 47.78C776.92 49.5 775.38 50.92 773.38 52.04C771.38 53.16 768.98 53.72 766.18 53.72ZM757.06 35.48H774.58C774.58 34.08 774.22 32.74 773.5 31.46C772.82 30.18 771.84 29.14 770.56 28.34C769.32 27.5 767.82 27.08 766.06 27.08C764.58 27.08 763.18 27.36 761.86 27.92C760.54 28.48 759.44 29.38 758.56 30.62C757.72 31.86 757.22 33.48 757.06 35.48ZM785.864 53V23.24H789.524L791.144 28.76C792.184 26.96 793.584 25.52 795.344 24.44C797.144 23.32 799.284 22.76 801.764 22.76V27.98C801.484 27.98 801.184 27.98 800.864 27.98C800.584 27.98 800.304 28 800.024 28.04C796.624 28.32 794.244 29.5 792.884 31.58C791.564 33.66 790.904 36.54 790.904 40.22V53H785.864ZM805.857 62.66V58.22H807.897C809.337 58.22 810.437 58.1 811.197 57.86C811.957 57.66 812.557 57.18 812.997 56.42C813.477 55.7 813.937 54.58 814.377 53.06L803.637 23.3H809.217L816.537 46.22L823.857 23.3H829.377L818.817 54.32C818.097 56.44 817.357 58.1 816.597 59.3C815.877 60.54 814.897 61.4 813.657 61.88C812.417 62.4 810.677 62.66 808.437 62.66H805.857ZM306.78 119.72C304.02 119.72 301.62 119.2 299.58 118.16C297.58 117.12 296.02 115.72 294.9 113.96C293.82 112.2 293.28 110.22 293.28 108.02C293.28 104.94 294.22 102.4 296.1 100.4C297.98 98.36 300.46 96.82 303.54 95.78C302.18 94.26 301.1 92.76 300.3 91.28C299.5 89.8 299.1 88.28 299.1 86.72C299.1 84.12 300.12 82.06 302.16 80.54C304.24 78.98 306.86 78.2 310.02 78.2C311.66 78.2 313.28 78.48 314.88 79.04C316.48 79.56 317.8 80.46 318.84 81.74C319.92 82.98 320.46 84.68 320.46 86.84C320.46 89.36 319.68 91.46 318.12 93.14C316.56 94.82 314.54 96.18 312.06 97.22L320.22 105.86C320.74 104.62 321.18 103.3 321.54 101.9C321.9 100.46 322.14 98.94 322.26 97.34H327.48C327.32 99.5 326.92 101.64 326.28 103.76C325.68 105.84 324.84 107.78 323.76 109.58L332.7 119H325.56L320.64 113.78C318.92 115.62 316.9 117.08 314.58 118.16C312.26 119.2 309.66 119.72 306.78 119.72ZM309 94.1C310.96 93.38 312.54 92.44 313.74 91.28C314.94 90.12 315.54 88.74 315.54 87.14C315.54 85.5 315 84.34 313.92 83.66C312.88 82.98 311.62 82.64 310.14 82.64C308.66 82.64 307.34 82.96 306.18 83.6C305.06 84.24 304.5 85.24 304.5 86.6C304.5 87.68 304.82 88.76 305.46 89.84C306.14 90.88 306.84 91.78 307.56 92.54C308.32 93.3 308.8 93.82 309 94.1ZM306.78 115.28C308.9 115.28 310.86 114.86 312.66 114.02C314.46 113.18 316.04 111.98 317.4 110.42L306.54 98.96C304.14 99.8 302.22 100.92 300.78 102.32C299.38 103.72 298.68 105.54 298.68 107.78C298.68 109.3 299.06 110.64 299.82 111.8C300.58 112.92 301.58 113.78 302.82 114.38C304.06 114.98 305.38 115.28 306.78 115.28ZM354.681 119V78.92H364.041L374.721 111.68L385.401 78.92H394.761V119H389.121V84.8L377.541 119H371.961L360.321 84.8V119H354.681ZM415.9 119.72C414.18 119.72 412.48 119.42 410.8 118.82C409.12 118.22 407.58 117.3 406.18 116.06C404.82 114.78 403.72 113.16 402.88 111.2C402.04 109.24 401.62 106.92 401.62 104.24C401.62 101.56 402.04 99.24 402.88 97.28C403.72 95.32 404.82 93.72 406.18 92.48C407.58 91.2 409.12 90.26 410.8 89.66C412.48 89.06 414.18 88.76 415.9 88.76C417.62 88.76 419.32 89.06 421 89.66C422.72 90.26 424.26 91.2 425.62 92.48C427.02 93.72 428.12 95.32 428.92 97.28C429.76 99.24 430.18 101.56 430.18 104.24C430.18 106.92 429.76 109.24 428.92 111.2C428.12 113.16 427.02 114.78 425.62 116.06C424.26 117.3 422.72 118.22 421 118.82C419.32 119.42 417.62 119.72 415.9 119.72ZM415.9 115.28C417.34 115.28 418.74 114.9 420.1 114.14C421.46 113.34 422.58 112.14 423.46 110.54C424.34 108.9 424.78 106.8 424.78 104.24C424.78 101.68 424.34 99.6 423.46 98C422.58 96.36 421.46 95.16 420.1 94.4C418.74 93.6 417.34 93.2 415.9 93.2C414.5 93.2 413.1 93.6 411.7 94.4C410.34 95.16 409.22 96.36 408.34 98C407.46 99.6 407.02 101.68 407.02 104.24C407.02 106.8 407.46 108.9 408.34 110.54C409.22 112.14 410.34 113.34 411.7 114.14C413.1 114.9 414.5 115.28 415.9 115.28ZM451.345 119.72C449.025 119.72 447.065 119.26 445.465 118.34C443.865 117.38 442.605 116.1 441.685 114.5L440.365 119H436.645V78.92H441.685V93.92C442.605 92.36 443.865 91.12 445.465 90.2C447.065 89.24 449.025 88.76 451.345 88.76C453.625 88.76 455.725 89.38 457.645 90.62C459.605 91.82 461.165 93.58 462.325 95.9C463.525 98.18 464.125 100.96 464.125 104.24C464.125 107.52 463.525 110.32 462.325 112.64C461.165 114.92 459.605 116.68 457.645 117.92C455.725 119.12 453.625 119.72 451.345 119.72ZM450.025 115.4C452.585 115.4 454.625 114.42 456.145 112.46C457.705 110.5 458.485 107.76 458.485 104.24C458.485 100.68 457.705 97.94 456.145 96.02C454.625 94.06 452.585 93.08 450.025 93.08C447.465 93.08 445.405 94.06 443.845 96.02C442.325 97.94 441.565 100.68 441.565 104.24C441.565 107.76 442.325 110.5 443.845 112.46C445.405 114.42 447.465 115.4 450.025 115.4ZM475.79 83.6C474.79 83.6 473.91 83.24 473.15 82.52C472.43 81.76 472.07 80.86 472.07 79.82C472.07 78.78 472.43 77.9 473.15 77.18C473.91 76.46 474.79 76.1 475.79 76.1C476.83 76.1 477.71 76.46 478.43 77.18C479.19 77.9 479.57 78.78 479.57 79.82C479.57 80.86 479.19 81.76 478.43 82.52C477.71 83.24 476.83 83.6 475.79 83.6ZM473.27 119V93.26H469.13V89.24H478.31V119H473.27ZM494.349 119C492.469 119 491.009 118.82 489.969 118.46C488.969 118.06 488.269 117.32 487.869 116.24C487.509 115.16 487.329 113.6 487.329 111.56V78.98H492.369V110.72C492.369 112.24 492.529 113.26 492.849 113.78C493.169 114.3 494.029 114.56 495.429 114.56H496.569V119H494.349ZM514.344 119.72C511.224 119.72 508.584 119.04 506.424 117.68C504.264 116.28 502.604 114.42 501.444 112.1C500.324 109.74 499.764 107.1 499.764 104.18C499.764 101.02 500.404 98.3 501.684 96.02C502.964 93.7 504.684 91.92 506.844 90.68C509.044 89.4 511.504 88.76 514.224 88.76C516.584 88.76 518.664 89.24 520.464 90.2C522.264 91.12 523.744 92.38 524.904 93.98C526.104 95.54 526.964 97.32 527.484 99.32C528.044 101.32 528.244 103.38 528.084 105.5H505.164C505.244 107.98 505.784 109.94 506.784 111.38C507.824 112.82 509.044 113.84 510.444 114.44C511.844 115 513.144 115.28 514.344 115.28C516.024 115.28 517.424 115.02 518.544 114.5C519.704 113.94 520.624 113.22 521.304 112.34L526.164 113.78C525.084 115.5 523.544 116.92 521.544 118.04C519.544 119.16 517.144 119.72 514.344 119.72ZM505.224 101.48H522.744C522.744 100.08 522.384 98.74 521.664 97.46C520.984 96.18 520.004 95.14 518.724 94.34C517.484 93.5 515.984 93.08 514.224 93.08C512.744 93.08 511.344 93.36 510.024 93.92C508.704 94.48 507.604 95.38 506.724 96.62C505.884 97.86 505.384 99.48 505.224 101.48ZM560.565 119V83.78H547.245V78.92H579.525V83.78H566.205V119H560.565ZM582.322 128.66V124.22H584.362C585.802 124.22 586.902 124.1 587.662 123.86C588.422 123.66 589.022 123.18 589.462 122.42C589.942 121.7 590.402 120.58 590.842 119.06L580.102 89.3H585.682L593.002 112.22L600.322 89.3H605.842L595.282 120.32C594.562 122.44 593.822 124.1 593.062 125.3C592.342 126.54 591.362 127.4 590.122 127.88C588.882 128.4 587.142 128.66 584.902 128.66H582.322ZM610.024 119V89.24H613.684L615.304 94.76C616.344 92.96 617.744 91.52 619.504 90.44C621.304 89.32 623.444 88.76 625.924 88.76V93.98C625.644 93.98 625.344 93.98 625.024 93.98C624.744 93.98 624.464 94 624.184 94.04C620.784 94.32 618.404 95.5 617.044 97.58C615.724 99.66 615.064 102.54 615.064 106.22V119H610.024ZM643.075 119.72C639.955 119.72 637.315 119.04 635.155 117.68C632.995 116.28 631.335 114.42 630.175 112.1C629.055 109.74 628.495 107.1 628.495 104.18C628.495 101.02 629.135 98.3 630.415 96.02C631.695 93.7 633.415 91.92 635.575 90.68C637.775 89.4 640.235 88.76 642.955 88.76C645.315 88.76 647.395 89.24 649.195 90.2C650.995 91.12 652.475 92.38 653.635 93.98C654.835 95.54 655.695 97.32 656.215 99.32C656.775 101.32 656.975 103.38 656.815 105.5H633.895C633.975 107.98 634.515 109.94 635.515 111.38C636.555 112.82 637.775 113.84 639.175 114.44C640.575 115 641.875 115.28 643.075 115.28C644.755 115.28 646.155 115.02 647.275 114.5C648.435 113.94 649.355 113.22 650.035 112.34L654.895 113.78C653.815 115.5 652.275 116.92 650.275 118.04C648.275 119.16 645.875 119.72 643.075 119.72ZM633.955 101.48H651.475C651.475 100.08 651.115 98.74 650.395 97.46C649.715 96.18 648.735 95.14 647.455 94.34C646.215 93.5 644.715 93.08 642.955 93.08C641.475 93.08 640.075 93.36 638.755 93.92C637.435 94.48 636.335 95.38 635.455 96.62C634.615 97.86 634.115 99.48 633.955 101.48ZM672.899 119.72C671.179 119.72 669.479 119.46 667.799 118.94C666.159 118.38 664.679 117.56 663.359 116.48C662.079 115.36 661.099 113.96 660.419 112.28L665.279 110.48C665.719 112.24 666.679 113.52 668.159 114.32C669.679 115.08 671.259 115.46 672.899 115.46C674.099 115.46 675.219 115.28 676.259 114.92C677.339 114.56 678.219 114.04 678.899 113.36C679.579 112.68 679.919 111.9 679.919 111.02C679.919 109.38 679.259 108.22 677.939 107.54C676.659 106.86 675.119 106.34 673.319 105.98L669.179 105.14C667.739 104.82 666.399 104.38 665.159 103.82C663.919 103.22 662.919 102.38 662.159 101.3C661.399 100.22 661.019 98.78 661.019 96.98C661.019 95.18 661.579 93.68 662.699 92.48C663.819 91.24 665.239 90.3 666.959 89.66C668.719 89.02 670.559 88.7 672.479 88.7C674.839 88.7 677.059 89.2 679.139 90.2C681.259 91.16 682.759 92.68 683.639 94.76L678.899 96.5C678.379 95.3 677.459 94.42 676.139 93.86C674.859 93.26 673.519 92.96 672.119 92.96C670.599 92.96 669.219 93.3 667.979 93.98C666.739 94.66 666.119 95.64 666.119 96.92C666.119 98.2 666.639 99.14 667.679 99.74C668.759 100.3 670.079 100.74 671.639 101.06L675.539 101.84C677.139 102.16 678.659 102.62 680.099 103.22C681.539 103.82 682.719 104.72 683.639 105.92C684.559 107.08 685.019 108.72 685.019 110.84C685.019 112.72 684.439 114.32 683.279 115.64C682.119 116.96 680.619 117.98 678.779 118.7C676.939 119.38 674.979 119.72 672.899 119.72Z"/><path fill="#fff" d="M302.7 180.72C300.82 180.72 299.1 180.36 297.54 179.64C295.98 178.92 294.74 177.92 293.82 176.64C292.9 175.32 292.44 173.76 292.44 171.96C292.44 169.52 293.28 167.58 294.96 166.14C296.68 164.7 299.02 163.62 301.98 162.9C304.94 162.18 308.34 161.68 312.18 161.4C312.18 159.28 311.84 157.78 311.16 156.9C310.48 156.02 309.16 155.58 307.2 155.58C305.96 155.58 304.86 155.88 303.9 156.48C302.98 157.04 302.36 157.92 302.04 159.12L294.36 156.36C295.36 154.36 297.02 152.7 299.34 151.38C301.7 150.06 304.58 149.4 307.98 149.4C312.22 149.4 315.48 150.34 317.76 152.22C320.04 154.1 321.18 157.3 321.18 161.82V168.36C321.18 169.64 321.22 171.02 321.3 172.5C321.38 173.98 321.5 175.38 321.66 176.7C321.82 178.02 322 179.12 322.2 180H313.74L312.66 176.4C311.54 177.96 310.12 179.08 308.4 179.76C306.72 180.4 304.82 180.72 302.7 180.72ZM306.06 174.48C307.86 174.48 309.36 174 310.56 173.04C311.76 172.08 312.36 170.24 312.36 167.52V166.8C309.2 167.08 306.66 167.52 304.74 168.12C302.82 168.68 301.86 169.74 301.86 171.3C301.86 172.26 302.26 173.04 303.06 173.64C303.86 174.2 304.86 174.48 306.06 174.48ZM327.164 180V150.24H334.364L335.984 155.7C336.904 153.3 338.164 151.62 339.764 150.66C341.364 149.7 343.304 149.28 345.584 149.4V158.52C345.104 158.44 344.684 158.4 344.324 158.4C343.964 158.36 343.564 158.34 343.124 158.34C340.924 158.34 339.224 158.86 338.024 159.9C336.864 160.94 336.284 162.64 336.284 165V180H327.164ZM349.488 180V150.24H356.688L358.308 155.7C359.228 153.3 360.488 151.62 362.088 150.66C363.688 149.7 365.628 149.28 367.908 149.4V158.52C367.428 158.44 367.008 158.4 366.648 158.4C366.288 158.36 365.888 158.34 365.448 158.34C363.248 158.34 361.548 158.86 360.348 159.9C359.188 160.94 358.608 162.64 358.608 165V180H349.488ZM386.573 180.72C383.373 180.72 380.533 180.1 378.053 178.86C375.613 177.58 373.693 175.76 372.293 173.4C370.933 171.04 370.253 168.22 370.253 164.94C370.253 161.78 370.973 159.04 372.413 156.72C373.893 154.4 375.833 152.6 378.233 151.32C380.673 150.04 383.333 149.4 386.213 149.4C389.493 149.4 392.293 150.18 394.613 151.74C396.973 153.26 398.753 155.38 399.953 158.1C401.153 160.78 401.653 163.88 401.453 167.4H379.433C379.593 169.48 380.353 171.04 381.713 172.08C383.113 173.12 384.653 173.64 386.333 173.64C387.733 173.64 388.933 173.44 389.933 173.04C390.973 172.6 391.773 172.06 392.333 171.42L399.593 174.06C398.033 176.34 396.073 178.02 393.713 179.1C391.393 180.18 389.013 180.72 386.573 180.72ZM379.433 162H392.993C392.953 160.08 392.293 158.64 391.013 157.68C389.733 156.68 388.213 156.18 386.452 156.18C384.733 156.18 383.193 156.64 381.833 157.56C380.513 158.48 379.713 159.96 379.433 162ZM419.477 180.72C416.197 180.72 413.417 180.06 411.137 178.74C408.897 177.42 407.177 175.58 405.977 173.22C404.817 170.82 404.237 168.06 404.237 164.94C404.237 161.82 404.877 159.1 406.157 156.78C407.437 154.42 409.217 152.6 411.497 151.32C413.817 150.04 416.477 149.4 419.477 149.4C421.197 149.4 422.897 149.64 424.577 150.12C426.297 150.6 427.877 151.42 429.317 152.58C430.797 153.7 431.997 155.24 432.917 157.2L425.297 159.96C424.817 158.68 424.097 157.78 423.137 157.26C422.217 156.74 421.177 156.48 420.017 156.48C418.937 156.48 417.897 156.76 416.897 157.32C415.897 157.84 415.077 158.72 414.437 159.96C413.837 161.2 413.537 162.88 413.537 165C413.537 167.16 413.857 168.88 414.497 170.16C415.137 171.4 415.937 172.3 416.897 172.86C417.897 173.38 418.937 173.64 420.017 173.64C421.297 173.64 422.377 173.4 423.257 172.92C424.137 172.4 424.837 171.7 425.357 170.82L432.797 173.52C431.797 175.32 430.557 176.76 429.077 177.84C427.597 178.88 426.017 179.62 424.337 180.06C422.697 180.5 421.077 180.72 419.477 180.72ZM451.189 180.72C448.429 180.72 445.849 180.16 443.449 179.04C441.049 177.92 439.109 176.2 437.629 173.88C436.149 171.52 435.409 168.56 435.409 165C435.409 161.4 436.149 158.46 437.629 156.18C439.109 153.86 441.049 152.16 443.449 151.08C445.849 149.96 448.429 149.4 451.189 149.4C453.909 149.4 456.469 149.96 458.869 151.08C461.269 152.16 463.209 153.86 464.689 156.18C466.169 158.46 466.909 161.4 466.909 165C466.909 168.56 466.169 171.52 464.689 173.88C463.209 176.2 461.269 177.92 458.869 179.04C456.469 180.16 453.909 180.72 451.189 180.72ZM451.189 173.64C453.029 173.64 454.549 172.98 455.749 171.66C456.989 170.34 457.609 168.12 457.609 165C457.609 161.84 456.969 159.64 455.689 158.4C454.449 157.12 452.949 156.48 451.189 156.48C449.389 156.48 447.849 157.12 446.569 158.4C445.329 159.64 444.709 161.84 444.709 165C444.709 168.12 445.329 170.34 446.569 171.66C447.809 172.98 449.349 173.64 451.189 173.64ZM478.983 180L468.363 150.24H477.783L484.143 170.52L490.503 150.24H499.923L489.243 180H478.983ZM517.119 180.72C513.919 180.72 511.079 180.1 508.599 178.86C506.159 177.58 504.239 175.76 502.839 173.4C501.479 171.04 500.799 168.22 500.799 164.94C500.799 161.78 501.519 159.04 502.959 156.72C504.439 154.4 506.379 152.6 508.779 151.32C511.219 150.04 513.879 149.4 516.759 149.4C520.039 149.4 522.839 150.18 525.159 151.74C527.519 153.26 529.299 155.38 530.499 158.1C531.699 160.78 532.199 163.88 531.999 167.4H509.979C510.139 169.48 510.899 171.04 512.259 172.08C513.659 173.12 515.199 173.64 516.879 173.64C518.279 173.64 519.479 173.44 520.479 173.04C521.519 172.6 522.319 172.06 522.879 171.42L530.139 174.06C528.579 176.34 526.619 178.02 524.259 179.1C521.939 180.18 519.559 180.72 517.119 180.72ZM509.979 162H523.539C523.499 160.08 522.839 158.64 521.559 157.68C520.279 156.68 518.759 156.18 516.999 156.18C515.279 156.18 513.739 156.64 512.379 157.56C511.059 158.48 510.259 159.96 509.979 162ZM536.344 180V150.24H543.544L545.164 155.7C546.084 153.3 547.344 151.62 548.944 150.66C550.544 149.7 552.484 149.28 554.764 149.4V158.52C554.284 158.44 553.864 158.4 553.504 158.4C553.144 158.36 552.744 158.34 552.304 158.34C550.104 158.34 548.404 158.86 547.204 159.9C546.044 160.94 545.464 162.64 545.464 165V180H536.344ZM561.15 189.66V183.06H562.95C564.31 183.06 565.33 183 566.01 182.88C566.69 182.76 567.21 182.46 567.57 181.98C567.97 181.54 568.33 180.82 568.65 179.82L557.25 150.24H567.03L572.85 168.84L578.55 150.24H588.33L576.93 180C575.97 182.52 574.99 184.48 573.99 185.88C573.03 187.28 571.79 188.26 570.27 188.82C568.75 189.38 566.69 189.66 564.09 189.66H561.15ZM595.625 180.72C594.025 180.72 592.645 180.14 591.485 178.98C590.325 177.82 589.745 176.44 589.745 174.84C589.745 173.2 590.325 171.82 591.485 170.7C592.645 169.58 594.025 169.02 595.625 169.02C597.225 169.02 598.585 169.58 599.705 170.7C600.865 171.82 601.445 173.2 601.445 174.84C601.445 176.44 600.865 177.82 599.705 178.98C598.585 180.14 597.225 180.72 595.625 180.72ZM616.215 180.72C613.575 180.72 611.495 180.24 609.975 179.28C608.495 178.28 607.435 176.84 606.795 174.96C606.195 173.08 605.895 170.8 605.895 168.12V150.24H615.015V166.86C615.015 169.58 615.415 171.4 616.215 172.32C617.055 173.2 618.215 173.64 619.695 173.64C621.495 173.64 622.795 173.04 623.595 171.84C624.435 170.64 624.855 168.66 624.855 165.9V150.24H634.035V180H626.115L624.855 175.8C623.975 177.28 622.875 178.48 621.555 179.4C620.275 180.28 618.495 180.72 616.215 180.72ZM640.113 180V139.92H649.233V161.52L659.193 150.24H669.993L658.353 162.66L670.893 180H660.093L652.353 169.2L649.233 172.5V180H640.113Z"/><path fill="#fff" d="M202.994 58.7934C200.672 55.7115 201.104 53.8624 197.241 53.8624H189.023V82.6281H220.868L202.994 58.7934Z"/><path fill="#fff" d="M147.929 66.1887C147.929 63.9183 146.091 62.0795 143.82 62.0795H135.602L121.723 103.171H55.976C51.1168 103.171 46.2886 103.952 41.676 105.493L16.6408 113.835C11.5967 115.52 8.21704 120.214 8.21704 125.525V148.373C8.21704 150.643 10.0559 152.482 12.3262 152.482H32.8722V148.804C32.8722 132.994 45.4462 119.815 61.2566 119.607C77.3236 119.402 90.401 132.356 90.401 148.373V152.482H156.148V103.172H147.93L147.929 66.1887Z"/><path fill="#fff" d="M254.769 111.391H262.987V109.09C262.987 103.769 259.597 99.0738 254.563 97.3993L234.777 90.8041C234.593 90.8247 234.418 90.8452 234.233 90.8452H184.923C182.652 90.8452 180.813 89.0063 180.813 86.736V53.8624H168.486C166.216 53.8624 164.377 55.7013 164.377 57.9716V152.484H189.032V148.375C189.032 132.493 201.914 119.61 217.798 119.61C233.69 119.61 246.563 132.492 246.563 148.375V152.484H258.891C261.161 152.484 263 150.646 263 148.375V131.938H254.782C252.511 131.938 250.672 130.1 250.672 127.829C250.672 125.559 252.511 123.72 254.782 123.72H263V119.611H254.782C252.511 119.611 250.672 117.772 250.672 115.502C250.672 113.231 252.511 111.393 254.782 111.393L254.769 111.391Z"/><path fill="#fff" d="M217.784 127.828C206.443 127.828 197.238 137.033 197.238 148.374C197.238 159.715 206.443 168.92 217.784 168.92C229.126 168.92 238.33 159.715 238.33 148.374C238.33 137.033 229.126 127.828 217.784 127.828ZM217.784 152.483C215.514 152.483 213.675 150.644 213.675 148.374C213.675 146.104 215.514 144.265 217.784 144.265C220.055 144.265 221.894 146.104 221.894 148.374C221.894 150.644 220.055 152.483 217.784 152.483Z"/><path fill="#fff" d="M24.6536 86.7359C24.6536 84.4656 22.8147 82.6268 20.5444 82.6268C18.274 82.6268 16.4352 84.4656 16.4352 86.7359C16.4352 89.0063 14.586 90.8451 12.326 90.8451C10.0659 90.8451 8.21678 88.996 8.21678 86.7359C8.21678 84.4759 9.10026 83.4383 11.1241 81.4249C13.3636 79.1854 16.4352 76.1138 16.4352 70.2992V39.3875L92.4757 94.9543H115.816L116.71 92.3039L36.6428 33.789L120.47 52.4241C119.628 54.0883 119.155 55.9787 119.155 57.9716C119.155 62.3169 121.405 66.1387 124.805 68.337L127.805 59.4611C128.935 56.1225 132.068 53.8726 135.592 53.8726H143.112C141.417 49.0855 136.856 45.6543 131.483 45.6543C130.579 45.6543 129.706 45.757 128.853 45.9419C128.668 45.87 128.463 45.7981 128.257 45.757L19.3851 21.5436C16.0051 20.2492 12.05 21.2971 9.8107 24.3584C8.74231 25.8172 8.23892 27.5224 8.22866 29.1969L8.21839 29.2071V70.2991C8.21839 72.6105 7.33491 73.5967 5.31105 75.6102C3.07155 77.8497 0 80.9212 0 86.7359C0 93.5365 5.52697 99.0635 12.3276 99.0635C19.1282 99.0635 24.6536 93.5366 24.6536 86.7359Z"/><path fill="#fff" d="M61.6377 127.828C50.2963 127.828 41.0917 137.033 41.0917 148.374C41.0917 159.715 50.2963 168.92 61.6377 168.92C72.9893 168.92 82.1836 159.715 82.1836 148.374C82.1836 137.033 72.979 127.828 61.6377 127.828ZM61.6377 152.483C59.3673 152.483 57.5285 150.644 57.5285 148.374C57.5285 146.104 59.3673 144.265 61.6377 144.265C63.908 144.265 65.7468 146.104 65.7468 148.374C65.7468 150.644 63.908 152.483 61.6377 152.483Z"/></svg>