<svg width="32" height="32" viewBox="0 0 32 32" fill="none" xmlns="http://www.w3.org/2000/svg">
<path d="M32 18.916V13.084C29.136 12.0627 28.3653 12.0147 27.964 11.0453C27.56 10.0733 28.0747 9.48667 29.376 6.748L25.252 2.624C22.5507 3.908 21.9347 4.44267 20.9533 4.036C19.984 3.63333 19.9293 2.85067 18.9173 0H13.084C12.0653 2.85867 12.0173 3.63333 11.0453 4.036C10.0427 4.45333 9.44133 3.90267 6.748 2.624L2.624 6.748C3.92667 9.488 4.44 10.072 4.036 11.0467C3.63333 12.016 2.86133 12.0653 0 13.084V18.9173C2.852 19.9307 3.63333 19.984 4.036 20.9547C4.44133 21.9333 3.928 22.5107 2.624 25.252L6.748 29.376C9.41333 28.1093 10.0413 27.5453 11.0453 27.964C12.016 28.3667 12.064 29.1373 13.084 32H18.916C19.9267 29.1587 19.9813 28.3693 20.9653 27.9587C21.9587 27.548 22.5467 28.0907 25.252 29.3747L29.376 25.2507C28.076 22.5173 27.56 21.928 27.964 20.9533C28.364 19.9853 29.1373 19.936 32 18.916ZM25.5 19.9347C24.7307 21.7933 25.4093 23.212 26.1507 24.7053L24.7053 26.1507C23.248 25.4267 21.824 24.716 19.9413 25.4973C18.08 26.272 17.5547 27.7547 17.024 29.3333H14.9787C14.448 27.7533 13.924 26.2707 12.068 25.5C10.176 24.716 8.72533 25.44 7.296 26.1507L5.852 24.7053C6.59467 23.2147 7.27333 21.7987 6.50133 19.932C5.72933 18.0773 4.24667 17.5533 2.66667 17.0227V14.9787C4.24667 14.448 5.72933 13.924 6.5 12.0667C7.27067 10.208 6.59067 8.788 5.84933 7.29467L7.29467 5.84933C8.73733 6.56667 10.1773 7.28533 12.068 6.5C13.924 5.73067 14.448 4.24667 14.9787 2.66667H17.024C17.5547 4.24667 18.08 5.72933 19.936 6.5C21.828 7.284 23.2773 6.56 24.708 5.84933L26.1533 7.29467C25.412 8.78933 24.7333 10.2107 25.5027 12.068C26.272 13.9227 27.7547 14.4467 29.336 14.9787V17.024C27.752 17.5547 26.2667 18.0787 25.5 19.9347ZM16 12C18.2053 12 20 13.7947 20 16C20 18.2053 18.2053 20 16 20C13.7947 20 12 18.2053 12 16C12 13.7947 13.7947 12 16 12ZM16 9.33333C12.3173 9.33333 9.33333 12.3173 9.33333 16C9.33333 19.6827 12.3173 22.6667 16 22.6667C19.6827 22.6667 22.6667 19.6827 22.6667 16C22.6667 12.3173 19.6827 9.33333 16 9.33333Z" fill="white" stroke="black"/>
</svg>
