<svg width="440" height="86" viewBox="0 0 440 86" fill="none" xmlns="http://www.w3.org/2000/svg">
<path d="M2 84C12.2293 81.223 36.0462 75.6691 49.4794 75.6691C66.2709 75.6691 88.8526 75.9141 97.5379 78.1193C106.223 80.3246 138.648 83.5099 142.122 80.8146C145.596 78.1193 171.652 64.8878 188.444 70.2785C205.235 75.6691 256.768 75.6691 281.665 75.6691C306.563 75.6691 340.725 70.5235 373.15 75.6691C405.575 80.8146 433.368 81.0597 438 75.6691" stroke="white" stroke-opacity="0.75" stroke-width="3" stroke-linecap="round"/>
<path d="M4.958 52V16.3H13.73V52H4.958ZM32.8084 52.51C29.9184 52.51 27.0624 51.983 24.2404 50.929C21.4184 49.875 18.9024 48.413 16.6924 46.543L21.5884 40.168C23.7644 41.936 25.7704 43.211 27.6064 43.993C29.4424 44.741 31.3974 45.115 33.4714 45.115C34.8314 45.115 35.9874 44.979 36.9394 44.707C37.8914 44.435 38.6224 44.044 39.1324 43.534C39.6424 42.99 39.8974 42.361 39.8974 41.647C39.8974 40.661 39.5234 39.896 38.7754 39.352C38.0274 38.808 36.7524 38.383 34.9504 38.077L27.0964 36.7C24.2064 36.19 21.9794 35.085 20.4154 33.385C18.8514 31.685 18.0694 29.526 18.0694 26.908C18.0694 24.596 18.6474 22.607 19.8034 20.941C20.9934 19.275 22.6764 18 24.8524 17.116C27.0624 16.232 29.6804 15.79 32.7064 15.79C35.3584 15.79 38.0274 16.249 40.7134 17.167C43.3994 18.051 45.7284 19.292 47.7004 20.89L43.0594 27.367C39.3874 24.545 35.7324 23.134 32.0944 23.134C30.9044 23.134 29.8674 23.27 28.9834 23.542C28.1334 23.78 27.4704 24.137 26.9944 24.613C26.5524 25.055 26.3314 25.599 26.3314 26.245C26.3314 27.129 26.6544 27.809 27.3004 28.285C27.9804 28.761 29.0684 29.135 30.5644 29.407L37.9594 30.631C41.3934 31.175 43.9944 32.314 45.7624 34.048C47.5644 35.782 48.4654 38.026 48.4654 40.78C48.4654 43.194 47.8364 45.285 46.5784 47.053C45.3204 48.787 43.5184 50.13 41.1724 51.082C38.8264 52.034 36.0384 52.51 32.8084 52.51ZM52.4717 52V16.3H63.5387L72.3617 33.13L81.1847 16.3H92.2517V52H83.9897V27.673L72.2597 49.45L60.5297 27.571V52H52.4717ZM94.8774 52L109.514 16.3H119.561L133.994 52H124.508L121.244 43.381H107.321L104.006 52H94.8774ZM109.973 36.394H118.643L114.359 24.97L109.973 36.394ZM136.592 52V16.3H164.744V23.899H145.364V30.325H158.165V37.669H145.364V44.401H164.948V52H136.592ZM170.11 52V16.3H198.262V23.899H178.882V30.325H191.683V37.669H178.882V44.401H198.466V52H170.11ZM203.629 52V16.3H212.401V44.248H231.22V52H203.629ZM242.747 52L257.384 16.3H267.431L281.864 52H272.378L269.114 43.381H255.191L251.876 52H242.747ZM257.843 36.394H266.513L262.229 24.97L257.843 36.394ZM284.462 52V16.3H293.234V31.906L307.667 16.3H318.275L301.751 33.079L319.193 52H307.565L293.234 35.629V52H284.462ZM320.072 52V16.3H338.33C340.778 16.3 342.954 16.793 344.858 17.779C346.762 18.731 348.241 20.074 349.295 21.808C350.383 23.508 350.927 25.463 350.927 27.673C350.927 29.917 350.315 31.923 349.091 33.691C347.867 35.459 346.252 36.802 344.246 37.72L352.049 52H342.257L335.525 38.995H328.844V52H320.072ZM328.844 31.855H337.514C338.874 31.855 339.962 31.481 340.778 30.733C341.628 29.985 342.053 29.016 342.053 27.826C342.053 26.636 341.628 25.667 340.778 24.919C339.962 24.171 338.874 23.797 337.514 23.797H328.844V31.855ZM352.617 52L367.254 16.3H377.301L391.734 52H382.248L378.984 43.381H365.061L361.746 52H352.617ZM367.713 36.394H376.383L372.099 24.97L367.713 36.394ZM394.331 52V16.3H405.398L414.221 33.13L423.044 16.3H434.111V52H425.849V27.673L414.119 49.45L402.389 27.571V52H394.331Z" fill="white"/>
</svg>
