<svg width="433" height="76" viewBox="0 0 433 76" fill="none" xmlns="http://www.w3.org/2000/svg">
<path d="M2 74C12.0651 71.223 35.4996 65.6691 48.7171 65.6691C65.239 65.6691 87.4582 65.9141 96.004 68.1193C104.55 70.3246 136.454 73.5099 139.873 70.8146C143.291 68.1193 168.928 54.8878 185.45 60.2785C201.972 65.6691 252.677 65.6691 277.175 65.6691C301.673 65.6691 335.287 60.5235 367.191 65.6691C399.096 70.8146 426.442 71.0597 431 65.6691" stroke="white" stroke-opacity="0.75" stroke-width="3" stroke-linecap="round"/>
<path d="M12.9072 47H5.28711V10.2939H12.9072V47ZM25.6323 35.6694C25.8647 37.3462 26.3213 38.5996 27.002 39.4297C28.2471 40.9404 30.3804 41.6958 33.4019 41.6958C35.2114 41.6958 36.6807 41.4966 37.8096 41.0981C39.9512 40.3345 41.022 38.915 41.022 36.8398C41.022 35.6279 40.4907 34.6899 39.4282 34.0259C38.3657 33.3784 36.6973 32.8057 34.4229 32.3076L30.5381 31.436C26.7197 30.5728 24.0801 29.6348 22.6191 28.6221C20.1455 26.9287 18.9087 24.2808 18.9087 20.6782C18.9087 17.3911 20.104 14.6602 22.4946 12.4854C24.8853 10.3105 28.3965 9.22314 33.0283 9.22314C36.8965 9.22314 40.1919 10.2524 42.9146 12.311C45.6538 14.353 47.0898 17.3247 47.2227 21.2261H39.8516C39.7188 19.0181 38.7559 17.4492 36.9629 16.5195C35.7676 15.9053 34.2817 15.5981 32.5054 15.5981C30.5298 15.5981 28.9526 15.9966 27.7739 16.7935C26.5952 17.5903 26.0059 18.7026 26.0059 20.1304C26.0059 21.4419 26.5869 22.4214 27.749 23.0688C28.4961 23.5005 30.0898 24.0068 32.5303 24.5879L38.8555 26.1069C41.6279 26.771 43.7197 27.6592 45.1309 28.7715C47.3223 30.498 48.418 32.9966 48.418 36.2671C48.418 39.6206 47.1313 42.4097 44.5581 44.6343C42.0015 46.8423 38.3823 47.9463 33.7007 47.9463C28.9194 47.9463 25.1592 46.8589 22.4199 44.6841C19.6807 42.4927 18.311 39.4878 18.311 35.6694H25.6323ZM78.4253 10.2939H89.457V47H82.3101V22.1724C82.3101 21.4585 82.3184 20.4624 82.335 19.1841C82.3516 17.8892 82.3599 16.8931 82.3599 16.1958L75.4121 47H67.9663L61.0684 16.1958C61.0684 16.8931 61.0767 17.8892 61.0933 19.1841C61.1099 20.4624 61.1182 21.4585 61.1182 22.1724V47H53.9712V10.2939H65.1274L71.8013 39.1558L78.4253 10.2939ZM106.615 33.1294H115.928L111.346 18.686L106.615 33.1294ZM107.088 10.2939H115.754L128.753 47H120.436L118.07 39.4546H104.548L102.008 47H93.9893L107.088 10.2939ZM160.578 16.7935H141.154V24.5879H158.984V30.9629H141.154V40.4009H161.475V47H133.659V10.2939H160.578V16.7935ZM194.595 16.7935H175.171V24.5879H193.001V30.9629H175.171V40.4009H195.491V47H167.675V10.2939H194.595V16.7935ZM201.468 10.2939H209.138V40.4009H227.316V47H201.468V10.2939ZM254.086 33.1294H263.4L258.818 18.686L254.086 33.1294ZM254.56 10.2939H263.226L276.225 47H267.907L265.542 39.4546H252.02L249.479 47H241.461L254.56 10.2939ZM281.031 10.2939H288.576V25.4097L302.746 10.2939H312.657L297.616 25.4097L313.429 47H303.567L292.237 30.9629L288.576 34.7231V47H281.031V10.2939ZM325.432 16.6689V26.5303H334.123C335.849 26.5303 337.144 26.3311 338.007 25.9326C339.535 25.2354 340.298 23.8574 340.298 21.7988C340.298 19.5742 339.56 18.0801 338.082 17.3164C337.252 16.8848 336.007 16.6689 334.347 16.6689H325.432ZM335.94 10.2939C338.514 10.3438 340.489 10.6592 341.867 11.2402C343.262 11.8213 344.44 12.6763 345.403 13.8052C346.2 14.7349 346.831 15.7642 347.296 16.8931C347.761 18.022 347.993 19.3086 347.993 20.7529C347.993 22.4961 347.553 24.2144 346.673 25.9077C345.793 27.5845 344.341 28.7715 342.315 29.4688C344.009 30.1494 345.204 31.1206 345.901 32.3823C346.615 33.6274 346.972 35.5366 346.972 38.1099V40.5752C346.972 42.252 347.039 43.3892 347.171 43.9868C347.371 44.9331 347.835 45.6304 348.566 46.0786V47H340.124C339.892 46.1865 339.726 45.5308 339.626 45.0327C339.427 44.0034 339.319 42.9492 339.302 41.8701L339.252 38.4585C339.219 36.1177 338.788 34.5571 337.958 33.7769C337.144 32.9966 335.608 32.6064 333.351 32.6064H325.432V47H317.936V10.2939H335.94ZM364.653 33.1294H373.966L369.384 18.686L364.653 33.1294ZM365.126 10.2939H373.792L386.791 47H378.474L376.108 39.4546H362.586L360.046 47H352.027L365.126 10.2939ZM415.802 10.2939H426.834V47H419.687V22.1724C419.687 21.4585 419.695 20.4624 419.712 19.1841C419.729 17.8892 419.737 16.8931 419.737 16.1958L412.789 47H405.343L398.445 16.1958C398.445 16.8931 398.454 17.8892 398.47 19.1841C398.487 20.4624 398.495 21.4585 398.495 22.1724V47H391.348V10.2939H402.504L409.178 39.1558L415.802 10.2939Z" fill="white"/>
</svg>
