<svg xmlns="http://www.w3.org/2000/svg" width="44" height="44" fill="none" viewBox="0 0 44 44"><mask id="mask0_401_60" style="mask-type:alpha" width="44" height="44" x="0" y="0" maskUnits="userSpaceOnUse"><rect width="44" height="44" fill="#D9D9D9"/></mask><g mask="url(#mask0_401_60)"><path fill="#fff" d="M6.87499 36.3913C6.08079 36.3913 5.40099 36.1013 4.83559 35.5212C4.27019 34.9404 3.98749 34.2679 3.98749 33.5038V10.4962C3.98749 9.73207 4.27019 9.0596 4.83559 8.4788C5.40099 7.89874 6.08079 7.6087 6.87499 7.6087H37.125C37.9192 7.6087 38.599 7.89874 39.1644 8.4788C39.7298 9.0596 40.0125 9.73207 40.0125 10.4962V33.5038C40.0125 34.2679 39.7298 34.9404 39.1644 35.5212C38.599 36.1013 37.9192 36.3913 37.125 36.3913H6.87499ZM22 22.7788C22.1525 22.7788 22.2823 22.7561 22.3894 22.7106C22.4965 22.6644 22.6263 22.6109 22.7788 22.55L36.6212 13.6125C36.7737 13.49 36.8958 13.3525 36.9875 13.2C37.0792 13.0475 37.125 12.8641 37.125 12.65C37.125 12.2225 36.934 11.8789 36.5519 11.6193C36.1698 11.359 35.7804 11.3663 35.3837 11.6413L22 20.1212L8.66249 11.6413C8.26502 11.3971 7.86792 11.3821 7.47119 11.5962C7.07372 11.8096 6.87499 12.1455 6.87499 12.6038C6.87499 12.8179 6.92852 13.009 7.03559 13.1769C7.14265 13.3448 7.25705 13.49 7.37879 13.6125L21.2663 22.55C21.3888 22.6109 21.5035 22.6644 21.6106 22.7106C21.7177 22.7561 21.8475 22.7788 22 22.7788Z"/></g></svg>