<svg xmlns="http://www.w3.org/2000/svg" width="215" height="36" fill="none" viewBox="0 0 215 36"><path fill="#fff" d="M24.7756 18.1782C24.7756 23.7319 23.7353 28.0005 21.6545 30.9839C19.5738 33.9673 16.5981 35.459 12.7273 35.459C8.84123 35.459 5.85783 33.9749 3.7771 31.0068C1.69637 28.0234 0.656006 23.7319 0.656006 18.1323C0.656006 12.5786 1.69637 8.32536 3.7771 5.37256C5.85783 2.40446 8.85653 0.92041 12.7732 0.92041C16.644 0.92041 19.6121 2.41211 21.6775 5.39551C23.7429 8.36361 24.7756 12.6245 24.7756 18.1782ZM7.03589 18.1782C7.03589 22.0031 7.51782 24.9176 8.48169 26.9219C9.44556 28.9261 10.8608 29.9282 12.7273 29.9282C16.491 29.9282 18.3728 26.0116 18.3728 18.1782C18.3728 10.3449 16.5063 6.42822 12.7732 6.42822C10.8761 6.42822 9.44556 7.43034 8.48169 9.43457C7.51782 11.4235 7.03589 14.3381 7.03589 18.1782ZM50.3181 1.44824V23.1582C50.3181 27.1514 49.4154 30.2036 47.6101 32.3149C45.8048 34.411 43.1962 35.459 39.7844 35.459C36.4491 35.459 33.9094 34.4186 32.1653 32.3379C30.4211 30.2419 29.5491 27.1514 29.5491 23.0664V1.44824H35.7454V23.5254C35.7454 27.7939 37.1606 29.9282 39.991 29.9282C41.3067 29.9282 42.3241 29.3851 43.0432 28.2988C43.7623 27.2126 44.1218 25.6673 44.1218 23.6631V1.44824H50.3181ZM66.4285 35H60.2092V6.93311H53.7834V1.44824H72.8542V6.93311H66.4285V35ZM91.5808 35H76.4573V1.44824H91.5808V6.84131H82.6995V14.8276H90.9382V20.2437H82.6995V29.5381H91.5808V35ZM102.711 21.9419V35H96.469V1.44824H104.639C108.097 1.44824 110.644 2.26676 112.281 3.90381C113.933 5.54085 114.76 8.04232 114.76 11.4082C114.76 15.6462 113.329 18.6066 110.468 20.2896L116.917 35H110.239L104.937 21.9419H102.711ZM102.711 16.5718H104.318C105.786 16.5718 106.842 16.1587 107.485 15.3325C108.127 14.491 108.448 13.2441 108.448 11.5918C108.448 9.87826 108.104 8.66195 107.416 7.94287C106.743 7.2085 105.695 6.84131 104.272 6.84131H102.711V16.5718ZM131.581 35V1.44824H137.823V29.5381H146.475V35H131.581ZM166.372 35L164.445 26.5317H155.701L153.773 35H147.531L155.839 1.31055H164.307L172.637 35H166.372ZM163.274 21.001L161.484 13.1982C161.377 12.724 161.132 11.5382 160.75 9.64111C160.383 7.72868 160.161 6.45117 160.084 5.80859C159.885 7.12435 159.633 8.5778 159.327 10.1689C159.021 11.7448 158.225 15.3555 156.94 21.001H163.274ZM175.598 1.44824H184.158C187.646 1.44824 190.186 2.12907 191.777 3.49072C193.368 4.83708 194.164 6.98665 194.164 9.93945C194.164 11.8825 193.743 13.5119 192.902 14.8276C192.06 16.1281 190.913 16.916 189.459 17.1914V17.4209C191.356 17.8952 192.726 18.7826 193.567 20.083C194.409 21.3835 194.829 23.1123 194.829 25.2695C194.829 28.3141 194.011 30.7008 192.374 32.4297C190.752 34.1432 188.526 35 185.696 35H175.598V1.44824ZM181.473 14.9424H184.342C185.657 14.9424 186.583 14.5905 187.118 13.8867C187.654 13.1829 187.922 12.1349 187.922 10.7427C187.922 9.35042 187.616 8.35596 187.004 7.75928C186.392 7.1473 185.428 6.84131 184.112 6.84131H181.473V14.9424ZM181.473 20.1519V29.5381H184.617C185.917 29.5381 186.881 29.1403 187.509 28.3447C188.151 27.5492 188.472 26.3175 188.472 24.6499C188.472 21.6512 187.157 20.1519 184.525 20.1519H181.473ZM214.703 25.7515C214.703 28.8879 213.908 31.2899 212.317 32.9575C210.741 34.6252 208.461 35.459 205.478 35.459C202.556 35.459 200.069 34.8853 198.019 33.7378V27.5645C200.528 29.2015 202.831 30.02 204.927 30.02C206.12 30.02 207.015 29.6911 207.612 29.0332C208.224 28.3753 208.53 27.4803 208.53 26.3481C208.53 25.2313 208.17 24.2139 207.451 23.2959C206.732 22.3626 205.547 21.3299 203.894 20.1978C202.456 19.2033 201.362 18.2547 200.613 17.3521C199.878 16.4341 199.304 15.409 198.891 14.2769C198.494 13.1447 198.295 11.8289 198.295 10.3296C198.295 7.45329 199.09 5.17367 200.681 3.49072C202.288 1.80778 204.437 0.966309 207.13 0.966309C209.7 0.966309 212.171 1.68538 214.543 3.12354L212.477 8.12646C211.743 7.69808 210.97 7.31559 210.159 6.979C209.364 6.64242 208.507 6.47412 207.589 6.47412C206.579 6.47412 205.799 6.81071 205.248 7.48389C204.713 8.14176 204.445 9.04443 204.445 10.1919C204.445 11.3241 204.766 12.3109 205.409 13.1523C206.067 13.9938 207.207 14.95 208.828 16.021C211.016 17.4897 212.538 18.9891 213.395 20.519C214.267 22.049 214.703 23.7931 214.703 25.7515Z"/></svg>