<svg xmlns="http://www.w3.org/2000/svg" width="307" height="57" fill="none" viewBox="0 0 307 57"><path fill="#fff" d="M22.1635 8.12109C22.1635 9.56641 21.8771 10.849 21.3042 11.9688C20.7443 13.0755 19.963 13.9935 18.9604 14.7227C17.9708 15.4518 16.8836 15.9857 15.6987 16.3242C14.5138 16.6628 13.2573 16.832 11.9292 16.832H8.8237V25.2305C8.8237 25.6862 8.89531 26.0898 9.03854 26.4414C9.19479 26.7799 9.50729 27.0404 9.97604 27.2227C10.2104 27.3138 10.6206 27.3984 11.2065 27.4766C11.8055 27.5547 12.3523 27.6003 12.8471 27.6133V29H0.952606V27.6133C1.26511 27.5872 1.71432 27.5417 2.30026 27.4766C2.89922 27.4115 3.31589 27.3268 3.55026 27.2227C3.94089 27.0534 4.22084 26.806 4.39011 26.4805C4.5724 26.1549 4.66354 25.7383 4.66354 25.2305V5.23047C4.66354 4.77474 4.59844 4.36458 4.46823 4C4.33802 3.63542 4.03203 3.36198 3.55026 3.17969C3.05547 3.01042 2.56068 2.89323 2.06589 2.82812C1.58412 2.75 1.16745 2.69792 0.815887 2.67188V1.28516H13.4721C16.0503 1.28516 18.1401 1.91016 19.7417 3.16016C21.3563 4.39714 22.1635 6.05078 22.1635 8.12109ZM16.226 12.8477C16.6688 12.2227 16.9617 11.5781 17.1049 10.9141C17.2482 10.237 17.3198 9.63151 17.3198 9.09766C17.3198 8.35547 17.2286 7.60026 17.0464 6.83203C16.8771 6.0638 16.5776 5.39323 16.1479 4.82031C15.6922 4.20833 15.0932 3.73307 14.351 3.39453C13.6089 3.05599 12.6844 2.88672 11.5776 2.88672H8.8237V15.1328H10.8159C12.2221 15.1328 13.3615 14.918 14.2339 14.4883C15.1193 14.0456 15.7833 13.4987 16.226 12.8477ZM52.3589 29H44.8979C43.2443 26.4089 41.7469 24.1693 40.4057 22.2812C39.0776 20.3932 37.6323 18.4466 36.0698 16.4414H33.2378V25.2305C33.2378 25.6862 33.3094 26.0898 33.4526 26.4414C33.5958 26.7799 33.9018 27.0404 34.3706 27.2227C34.6049 27.3138 35.0151 27.3984 35.601 27.4766C36.187 27.5547 36.6818 27.6003 37.0854 27.6133V29H25.3667V27.6133C25.6792 27.5872 26.1284 27.5417 26.7143 27.4766C27.3133 27.4115 27.7299 27.3268 27.9643 27.2227C28.3549 27.0534 28.6349 26.806 28.8042 26.4805C28.9865 26.1549 29.0776 25.7383 29.0776 25.2305V5.19141C29.0776 4.73568 29.0125 4.33203 28.8823 3.98047C28.7521 3.62891 28.4461 3.36198 27.9643 3.17969C27.6388 3.0625 27.2156 2.95833 26.6948 2.86719C26.174 2.76302 25.7313 2.69792 25.3667 2.67188V1.28516H38.1596C39.3315 1.28516 40.4318 1.40885 41.4604 1.65625C42.4891 1.89062 43.4201 2.27474 44.2534 2.80859C45.0607 3.32943 45.7052 4.01302 46.187 4.85938C46.6688 5.69271 46.9096 6.70182 46.9096 7.88672C46.9096 8.95443 46.7469 9.89844 46.4214 10.7188C46.0958 11.5391 45.6141 12.2487 44.976 12.8477C44.3901 13.4076 43.687 13.8958 42.8667 14.3125C42.0464 14.7161 41.1414 15.0612 40.1518 15.3477C41.519 17.1576 42.6518 18.681 43.5503 19.918C44.4617 21.1549 45.575 22.6589 46.8901 24.4297C47.463 25.2109 47.9773 25.7904 48.4331 26.168C48.9018 26.5326 49.3641 26.832 49.8198 27.0664C50.1583 27.2357 50.5815 27.3659 51.0893 27.457C51.5971 27.5482 52.0203 27.6003 52.3589 27.6133V29ZM42.0854 8.33594C42.0854 6.65625 41.6036 5.32812 40.6401 4.35156C39.6766 3.36198 38.3159 2.86719 36.5581 2.86719H33.2378V14.7617H35.7964C37.5932 14.7617 39.0906 14.1888 40.2885 13.043C41.4865 11.8841 42.0854 10.3151 42.0854 8.33594ZM76.7534 20.8359L76.226 29H53.2182V27.6133C53.6089 27.5872 54.1297 27.5352 54.7807 27.457C55.4318 27.3659 55.8549 27.2747 56.0503 27.1836C56.4669 26.9883 56.7534 26.7344 56.9096 26.4219C57.0789 26.1094 57.1635 25.7122 57.1635 25.2305V5.30859C57.1635 4.87891 57.0919 4.5013 56.9487 4.17578C56.8055 3.83724 56.506 3.5638 56.0503 3.35547C55.6987 3.1862 55.2234 3.03646 54.6245 2.90625C54.0385 2.77604 53.5698 2.69792 53.2182 2.67188V1.28516H74.6635V7.96484H73.1987C72.9383 6.97526 72.3719 5.92708 71.4995 4.82031C70.6401 3.70052 69.8198 3.08854 69.0385 2.98438C68.6349 2.93229 68.1531 2.89323 67.5932 2.86719C67.0333 2.84115 66.3953 2.82812 65.6792 2.82812H61.3237V13.8438H64.4487C65.4513 13.8438 66.1805 13.7526 66.6362 13.5703C67.1049 13.375 67.5151 13.056 67.8667 12.6133C68.1531 12.2357 68.394 11.7344 68.5893 11.1094C68.7977 10.4714 68.9344 9.8724 68.9995 9.3125H70.4643V20.1523H68.9995C68.9474 19.5273 68.8042 18.8698 68.5698 18.1797C68.3484 17.4766 68.1141 16.9688 67.8667 16.6562C67.463 16.1484 67.0008 15.8164 66.4799 15.6602C65.9721 15.5039 65.2951 15.4258 64.4487 15.4258H61.3237V23.7461C61.3237 24.5794 61.3823 25.237 61.4995 25.7188C61.6167 26.2005 61.8445 26.5651 62.1831 26.8125C62.5216 27.0599 62.9839 27.2227 63.5698 27.3008C64.1557 27.3659 64.9891 27.3984 66.0698 27.3984C66.4995 27.3984 67.0659 27.3984 67.769 27.3984C68.4721 27.3984 69.0646 27.3724 69.5464 27.3203C70.0411 27.2682 70.549 27.1771 71.0698 27.0469C71.6036 26.9036 71.9813 26.7148 72.2026 26.4805C72.8016 25.8555 73.4266 24.9115 74.0776 23.6484C74.7417 22.3724 75.1648 21.4349 75.3471 20.8359H76.7534ZM96.8315 16.2852C97.4174 16.9362 97.8471 17.6523 98.1206 18.4336C98.407 19.2018 98.5503 20.1003 98.5503 21.1289C98.5503 23.5768 97.6453 25.5951 95.8354 27.1836C94.0255 28.7721 91.7794 29.5664 89.0971 29.5664C87.8602 29.5664 86.6232 29.3776 85.3862 29C84.1492 28.6094 83.0815 28.1406 82.1831 27.5938L81.3432 29.0195H79.7807L79.5073 19.5273H81.0893C81.4148 20.6992 81.7924 21.7604 82.2221 22.7109C82.6648 23.6484 83.2443 24.5273 83.9604 25.3477C84.6375 26.1159 85.4253 26.7279 86.3237 27.1836C87.2352 27.6393 88.2898 27.8672 89.4878 27.8672C90.3862 27.8672 91.1674 27.75 91.8315 27.5156C92.5086 27.2812 93.0555 26.9492 93.4721 26.5195C93.8888 26.0898 94.1948 25.5885 94.3901 25.0156C94.5984 24.4297 94.7026 23.7591 94.7026 23.0039C94.7026 21.8971 94.3901 20.8685 93.7651 19.918C93.1401 18.9544 92.2091 18.2253 90.9721 17.7305C90.1258 17.3919 89.1557 17.0208 88.062 16.6172C86.9682 16.2005 86.0242 15.8099 85.2299 15.4453C83.6674 14.7422 82.45 13.8242 81.5776 12.6914C80.7182 11.5456 80.2885 10.0547 80.2885 8.21875C80.2885 7.16406 80.5034 6.18099 80.9331 5.26953C81.3628 4.35807 81.9747 3.54427 82.769 2.82812C83.5242 2.15104 84.4161 1.6237 85.4448 1.24609C86.4734 0.855469 87.5477 0.660156 88.6674 0.660156C89.9435 0.660156 91.0828 0.855469 92.0854 1.24609C93.101 1.63672 94.0255 2.09245 94.8589 2.61328L95.6596 1.28516H97.2221L97.3784 10.4844H95.7964C95.5099 9.42969 95.1844 8.42057 94.8198 7.45703C94.4682 6.49349 94.006 5.62109 93.4331 4.83984C92.8732 4.08464 92.1896 3.48568 91.3823 3.04297C90.575 2.58724 89.5854 2.35938 88.4135 2.35938C87.1766 2.35938 86.1219 2.75651 85.2495 3.55078C84.3771 4.34505 83.9409 5.3151 83.9409 6.46094C83.9409 7.65885 84.2208 8.65495 84.7807 9.44922C85.3406 10.2305 86.1544 10.875 87.2221 11.3828C88.1727 11.8385 89.1036 12.2357 90.0151 12.5742C90.9396 12.8997 91.8315 13.2513 92.6909 13.6289C93.4721 13.9674 94.2208 14.3516 94.937 14.7812C95.6661 15.2109 96.2977 15.7122 96.8315 16.2852ZM124.566 8.80469H123.218C123.101 8.33594 122.886 7.78255 122.574 7.14453C122.274 6.49349 121.936 5.88151 121.558 5.30859C121.167 4.70964 120.738 4.1888 120.269 3.74609C119.813 3.29036 119.371 3.02995 118.941 2.96484C118.537 2.91276 118.029 2.8737 117.417 2.84766C116.805 2.82161 116.239 2.80859 115.718 2.80859H114.585V24.9766C114.585 25.4062 114.677 25.8034 114.859 26.168C115.041 26.5195 115.36 26.793 115.816 26.9883C116.05 27.0794 116.539 27.2031 117.281 27.3594C118.036 27.5156 118.622 27.6003 119.039 27.6133V29H105.953V27.6133C106.317 27.5872 106.871 27.5352 107.613 27.457C108.368 27.3789 108.889 27.2812 109.175 27.1641C109.605 26.9948 109.917 26.7539 110.113 26.4414C110.321 26.1159 110.425 25.6862 110.425 25.1523V2.80859H109.292C108.889 2.80859 108.388 2.82161 107.789 2.84766C107.19 2.86068 106.617 2.89974 106.07 2.96484C105.64 3.01693 105.191 3.27734 104.722 3.74609C104.266 4.20182 103.843 4.72266 103.453 5.30859C103.062 5.89453 102.717 6.51953 102.417 7.18359C102.118 7.83464 101.91 8.375 101.792 8.80469H100.425V1.28516H124.566V8.80469ZM138.921 29H126.441V27.6133C126.792 27.5872 127.3 27.5482 127.964 27.4961C128.628 27.444 129.097 27.3659 129.371 27.2617C129.8 27.0924 130.113 26.8646 130.308 26.5781C130.503 26.2786 130.601 25.8685 130.601 25.3477V5.26953C130.601 4.8138 130.529 4.4362 130.386 4.13672C130.243 3.82422 129.904 3.5638 129.371 3.35547C128.98 3.19922 128.485 3.05599 127.886 2.92578C127.3 2.78255 126.818 2.69792 126.441 2.67188V1.28516H138.921V2.67188C138.518 2.6849 138.036 2.73698 137.476 2.82812C136.916 2.90625 136.428 3.01042 136.011 3.14062C135.516 3.29688 135.184 3.55078 135.015 3.90234C134.846 4.25391 134.761 4.64453 134.761 5.07422V25.1328C134.761 25.5625 134.852 25.9466 135.035 26.2852C135.23 26.6107 135.555 26.8711 136.011 27.0664C136.285 27.1706 136.727 27.2878 137.339 27.418C137.964 27.5352 138.492 27.6003 138.921 27.6133V29ZM169.214 17.9258C168.902 17.9648 168.479 18.0299 167.945 18.1211C167.424 18.1992 167.001 18.3164 166.675 18.4727C166.285 18.668 166.005 18.9479 165.835 19.3125C165.679 19.6641 165.601 20.0807 165.601 20.5625V22.7109C165.601 24.2734 165.608 25.3281 165.621 25.875C165.647 26.4219 165.673 26.8711 165.699 27.2227C163.967 28.0039 162.242 28.6029 160.523 29.0195C158.804 29.4362 157.118 29.6445 155.464 29.6445C153.693 29.6445 151.988 29.3125 150.347 28.6484C148.707 27.9844 147.274 27.0404 146.05 25.8164C144.813 24.5794 143.83 23.0755 143.101 21.3047C142.372 19.5339 142.007 17.5547 142.007 15.3672C142.007 13.2578 142.352 11.3047 143.042 9.50781C143.746 7.69792 144.735 6.12891 146.011 4.80078C147.248 3.4987 148.72 2.48958 150.425 1.77344C152.144 1.04427 153.98 0.679688 155.933 0.679688C157.496 0.679688 158.856 0.86849 160.015 1.24609C161.174 1.6237 162.196 2.07943 163.082 2.61328L163.882 1.28516H165.445L165.621 10.9727H164.019C163.746 9.90495 163.407 8.85677 163.003 7.82812C162.6 6.78646 162.079 5.85547 161.441 5.03516C160.803 4.21484 160.022 3.5638 159.097 3.08203C158.186 2.58724 157.092 2.33984 155.816 2.33984C154.423 2.33984 153.179 2.6263 152.085 3.19922C150.992 3.75911 150.041 4.59896 149.234 5.71875C148.44 6.79948 147.828 8.14714 147.398 9.76172C146.968 11.3763 146.753 13.1797 146.753 15.1719C146.753 16.9297 146.962 18.5898 147.378 20.1523C147.808 21.7018 148.427 23.043 149.234 24.1758C150.041 25.3346 151.05 26.2461 152.261 26.9102C153.472 27.5742 154.846 27.9062 156.382 27.9062C157.528 27.9062 158.57 27.7305 159.507 27.3789C160.458 27.0273 161.128 26.6562 161.519 26.2656C161.623 25.5885 161.675 24.9049 161.675 24.2148C161.688 23.5247 161.695 22.9388 161.695 22.457V20.9336C161.695 20.3867 161.617 19.9049 161.46 19.4883C161.317 19.0586 161.011 18.7461 160.542 18.5508C160.113 18.3555 159.527 18.2122 158.785 18.1211C158.055 18.0169 157.483 17.9518 157.066 17.9258V16.5H169.214V17.9258ZM194.722 20.8359L194.195 29H171.187V27.6133C171.578 27.5872 172.098 27.5352 172.749 27.457C173.401 27.3659 173.824 27.2747 174.019 27.1836C174.436 26.9883 174.722 26.7344 174.878 26.4219C175.048 26.1094 175.132 25.7122 175.132 25.2305V5.30859C175.132 4.87891 175.061 4.5013 174.917 4.17578C174.774 3.83724 174.475 3.5638 174.019 3.35547C173.667 3.1862 173.192 3.03646 172.593 2.90625C172.007 2.77604 171.539 2.69792 171.187 2.67188V1.28516H192.632V7.96484H191.167C190.907 6.97526 190.341 5.92708 189.468 4.82031C188.609 3.70052 187.789 3.08854 187.007 2.98438C186.604 2.93229 186.122 2.89323 185.562 2.86719C185.002 2.84115 184.364 2.82812 183.648 2.82812H179.292V13.8438H182.417C183.42 13.8438 184.149 13.7526 184.605 13.5703C185.074 13.375 185.484 13.056 185.835 12.6133C186.122 12.2357 186.363 11.7344 186.558 11.1094C186.766 10.4714 186.903 9.8724 186.968 9.3125H188.433V20.1523H186.968C186.916 19.5273 186.773 18.8698 186.539 18.1797C186.317 17.4766 186.083 16.9688 185.835 16.6562C185.432 16.1484 184.97 15.8164 184.449 15.6602C183.941 15.5039 183.264 15.4258 182.417 15.4258H179.292V23.7461C179.292 24.5794 179.351 25.237 179.468 25.7188C179.585 26.2005 179.813 26.5651 180.152 26.8125C180.49 27.0599 180.953 27.2227 181.539 27.3008C182.124 27.3659 182.958 27.3984 184.039 27.3984C184.468 27.3984 185.035 27.3984 185.738 27.3984C186.441 27.3984 187.033 27.3724 187.515 27.3203C188.01 27.2682 188.518 27.1771 189.039 27.0469C189.572 26.9036 189.95 26.7148 190.171 26.4805C190.77 25.8555 191.395 24.9115 192.046 23.6484C192.71 22.3724 193.134 21.4349 193.316 20.8359H194.722ZM219.41 29.6445C217.756 29.6445 216.167 29.319 214.644 28.668C213.134 28.0169 211.792 27.0794 210.621 25.8555C209.462 24.6315 208.537 23.1406 207.847 21.3828C207.157 19.612 206.812 17.6198 206.812 15.4062C206.812 13.1927 207.151 11.1875 207.828 9.39062C208.505 7.58073 209.442 6.02474 210.64 4.72266C211.825 3.43359 213.225 2.4375 214.839 1.73438C216.454 1.03125 218.179 0.679688 220.015 0.679688C221.382 0.679688 222.619 0.848958 223.726 1.1875C224.833 1.52604 225.888 2.0013 226.89 2.61328L227.691 1.28516H229.253L229.429 11.168H227.828C227.619 10.2044 227.307 9.16276 226.89 8.04297C226.473 6.91016 225.985 5.95312 225.425 5.17188C224.8 4.28646 224.058 3.59635 223.199 3.10156C222.339 2.59375 221.356 2.33984 220.249 2.33984C218.986 2.33984 217.808 2.61979 216.714 3.17969C215.634 3.73958 214.696 4.56641 213.902 5.66016C213.147 6.71484 212.554 8.05599 212.124 9.68359C211.695 11.3112 211.48 13.1276 211.48 15.1328C211.48 16.9036 211.701 18.5312 212.144 20.0156C212.6 21.487 213.244 22.7826 214.078 23.9023C214.911 25.0091 215.894 25.875 217.027 26.5C218.173 27.125 219.449 27.4375 220.855 27.4375C221.91 27.4375 222.88 27.2747 223.765 26.9492C224.651 26.6107 225.419 26.168 226.07 25.6211C226.721 25.0482 227.294 24.3971 227.789 23.668C228.283 22.9388 228.687 22.1445 228.999 21.2852L230.464 21.9883C229.345 24.7357 227.86 26.7018 226.011 27.8867C224.162 29.0586 221.962 29.6445 219.41 29.6445ZM258.746 29H247.203V27.6133C248.218 27.5482 249.058 27.418 249.722 27.2227C250.399 27.0273 250.738 26.7865 250.738 26.5C250.738 26.3828 250.725 26.2396 250.699 26.0703C250.673 25.901 250.634 25.7513 250.582 25.6211L248.277 19.4102H238.57C238.205 20.3216 237.906 21.1159 237.671 21.793C237.45 22.4701 237.248 23.0951 237.066 23.668C236.897 24.2279 236.779 24.6836 236.714 25.0352C236.649 25.3867 236.617 25.6732 236.617 25.8945C236.617 26.4154 237.027 26.819 237.847 27.1055C238.667 27.3919 239.592 27.5612 240.621 27.6133V29H230.191V27.6133C230.529 27.5872 230.953 27.5156 231.46 27.3984C231.968 27.2682 232.385 27.099 232.71 26.8906C233.231 26.5391 233.635 26.1745 233.921 25.7969C234.208 25.4062 234.488 24.8724 234.761 24.1953C236.154 20.7188 237.691 16.8125 239.371 12.4766C241.05 8.14062 242.548 4.27995 243.863 0.894531H245.425L254.664 24.8008C254.859 25.3086 255.08 25.7188 255.328 26.0312C255.575 26.3438 255.92 26.6497 256.363 26.9492C256.662 27.1315 257.053 27.2878 257.535 27.418C258.016 27.5352 258.42 27.6003 258.746 27.6133V29ZM247.574 17.6719L243.374 6.92969L239.253 17.6719H247.574ZM286.734 29H279.273C277.619 26.4089 276.122 24.1693 274.781 22.2812C273.453 20.3932 272.007 18.4466 270.445 16.4414H267.613V25.2305C267.613 25.6862 267.684 26.0898 267.828 26.4414C267.971 26.7799 268.277 27.0404 268.746 27.2227C268.98 27.3138 269.39 27.3984 269.976 27.4766C270.562 27.5547 271.057 27.6003 271.46 27.6133V29H259.742V27.6133C260.054 27.5872 260.503 27.5417 261.089 27.4766C261.688 27.4115 262.105 27.3268 262.339 27.2227C262.73 27.0534 263.01 26.806 263.179 26.4805C263.361 26.1549 263.453 25.7383 263.453 25.2305V5.19141C263.453 4.73568 263.388 4.33203 263.257 3.98047C263.127 3.62891 262.821 3.36198 262.339 3.17969C262.014 3.0625 261.591 2.95833 261.07 2.86719C260.549 2.76302 260.106 2.69792 259.742 2.67188V1.28516H272.535C273.707 1.28516 274.807 1.40885 275.835 1.65625C276.864 1.89062 277.795 2.27474 278.628 2.80859C279.436 3.32943 280.08 4.01302 280.562 4.85938C281.044 5.69271 281.285 6.70182 281.285 7.88672C281.285 8.95443 281.122 9.89844 280.796 10.7188C280.471 11.5391 279.989 12.2487 279.351 12.8477C278.765 13.4076 278.062 13.8958 277.242 14.3125C276.421 14.7161 275.516 15.0612 274.527 15.3477C275.894 17.1576 277.027 18.681 277.925 19.918C278.837 21.1549 279.95 22.6589 281.265 24.4297C281.838 25.2109 282.352 25.7904 282.808 26.168C283.277 26.5326 283.739 26.832 284.195 27.0664C284.533 27.2357 284.957 27.3659 285.464 27.457C285.972 27.5482 286.395 27.6003 286.734 27.6133V29ZM276.46 8.33594C276.46 6.65625 275.979 5.32812 275.015 4.35156C274.052 3.36198 272.691 2.86719 270.933 2.86719H267.613V14.7617H270.171C271.968 14.7617 273.466 14.1888 274.664 13.043C275.861 11.8841 276.46 10.3151 276.46 8.33594ZM305.074 16.2852C305.66 16.9362 306.089 17.6523 306.363 18.4336C306.649 19.2018 306.792 20.1003 306.792 21.1289C306.792 23.5768 305.888 25.5951 304.078 27.1836C302.268 28.7721 300.022 29.5664 297.339 29.5664C296.102 29.5664 294.865 29.3776 293.628 29C292.391 28.6094 291.324 28.1406 290.425 27.5938L289.585 29.0195H288.023L287.749 19.5273H289.332C289.657 20.6992 290.035 21.7604 290.464 22.7109C290.907 23.6484 291.486 24.5273 292.203 25.3477C292.88 26.1159 293.667 26.7279 294.566 27.1836C295.477 27.6393 296.532 27.8672 297.73 27.8672C298.628 27.8672 299.41 27.75 300.074 27.5156C300.751 27.2812 301.298 26.9492 301.714 26.5195C302.131 26.0898 302.437 25.5885 302.632 25.0156C302.841 24.4297 302.945 23.7591 302.945 23.0039C302.945 21.8971 302.632 20.8685 302.007 19.918C301.382 18.9544 300.451 18.2253 299.214 17.7305C298.368 17.3919 297.398 17.0208 296.304 16.6172C295.21 16.2005 294.266 15.8099 293.472 15.4453C291.91 14.7422 290.692 13.8242 289.82 12.6914C288.96 11.5456 288.531 10.0547 288.531 8.21875C288.531 7.16406 288.746 6.18099 289.175 5.26953C289.605 4.35807 290.217 3.54427 291.011 2.82812C291.766 2.15104 292.658 1.6237 293.687 1.24609C294.716 0.855469 295.79 0.660156 296.91 0.660156C298.186 0.660156 299.325 0.855469 300.328 1.24609C301.343 1.63672 302.268 2.09245 303.101 2.61328L303.902 1.28516H305.464L305.621 10.4844H304.039C303.752 9.42969 303.427 8.42057 303.062 7.45703C302.71 6.49349 302.248 5.62109 301.675 4.83984C301.115 4.08464 300.432 3.48568 299.624 3.04297C298.817 2.58724 297.828 2.35938 296.656 2.35938C295.419 2.35938 294.364 2.75651 293.492 3.55078C292.619 4.34505 292.183 5.3151 292.183 6.46094C292.183 7.65885 292.463 8.65495 293.023 9.44922C293.583 10.2305 294.397 10.875 295.464 11.3828C296.415 11.8385 297.346 12.2357 298.257 12.5742C299.182 12.8997 300.074 13.2513 300.933 13.6289C301.714 13.9674 302.463 14.3516 303.179 14.7812C303.908 15.2109 304.54 15.7122 305.074 16.2852ZM77.8667 47.0879C77.8667 47.765 77.7592 48.4323 77.5444 49.0898C77.3296 49.7409 77.0236 50.2943 76.6264 50.75C76.1772 51.2708 75.6564 51.6582 75.0639 51.9121C74.4715 52.166 73.8074 52.293 73.0717 52.293C72.4598 52.293 71.8771 52.179 71.3237 51.9512C70.7703 51.7168 70.2788 51.3783 69.8491 50.9355C69.4259 50.4993 69.0874 49.9688 68.8335 49.3438C68.5861 48.7122 68.4624 48.0059 68.4624 47.2246C68.4624 45.7207 68.8986 44.4902 69.771 43.5332C70.6499 42.5762 71.799 42.0977 73.2182 42.0977C74.5659 42.0977 75.6759 42.5534 76.5483 43.4648C77.4272 44.3698 77.8667 45.5775 77.8667 47.0879ZM75.8452 47.1074C75.8452 46.6191 75.7964 46.1048 75.6987 45.5645C75.601 45.0176 75.4546 44.5553 75.2592 44.1777C75.0509 43.7741 74.7775 43.4518 74.4389 43.2109C74.1004 42.9635 73.687 42.8398 73.1987 42.8398C72.6974 42.8398 72.2677 42.9635 71.9096 43.2109C71.5581 43.4583 71.2716 43.7969 71.0503 44.2266C70.8419 44.6237 70.6954 45.0762 70.6108 45.584C70.5262 46.0918 70.4839 46.5833 70.4839 47.0586C70.4839 47.6836 70.5327 48.263 70.6303 48.7969C70.7345 49.3242 70.8973 49.7962 71.1186 50.2129C71.34 50.6296 71.6167 50.9583 71.9487 51.1992C72.2872 51.4336 72.7039 51.5508 73.1987 51.5508C74.0125 51.5508 74.657 51.1569 75.1323 50.3691C75.6076 49.5814 75.8452 48.4941 75.8452 47.1074ZM86.4311 38.0449C86.4311 38.3379 86.353 38.5853 86.1967 38.7871C86.0405 38.9889 85.8029 39.0898 85.4839 39.0898C85.282 39.0898 85.103 39.0475 84.9467 38.9629C84.797 38.8783 84.657 38.7643 84.5268 38.6211C84.3966 38.4779 84.2762 38.3151 84.1655 38.1328C84.0548 37.9505 83.9604 37.804 83.8823 37.6934C83.4461 37.7129 83.1076 38.0189 82.8667 38.6113C82.6323 39.1973 82.5151 40.1348 82.5151 41.4238V42.4102H84.9956V43.3477H82.5151V50.2617C82.5151 50.4896 82.5574 50.6751 82.6421 50.8184C82.7332 50.9616 82.8732 51.069 83.062 51.1406C83.2182 51.1992 83.4266 51.248 83.687 51.2871C83.9474 51.3197 84.172 51.3424 84.3608 51.3555V52H79.2827V51.3555C79.4324 51.3424 79.5854 51.3294 79.7417 51.3164C79.9044 51.3034 80.0444 51.2773 80.1616 51.2383C80.3439 51.1797 80.4773 51.0788 80.562 50.9355C80.6531 50.7858 80.6987 50.5938 80.6987 50.3594V43.3477H78.7944V42.4102H80.6987V41.7949C80.6987 40.3301 81.0763 39.1452 81.8315 38.2402C82.5932 37.3288 83.5438 36.873 84.6831 36.873C85.2625 36.873 85.6987 36.987 85.9917 37.2148C86.2846 37.4427 86.4311 37.7194 86.4311 38.0449ZM96.9487 52.3223C96.1219 52.3223 95.3276 52.1595 94.5659 51.834C93.8107 51.5085 93.1401 51.0397 92.5542 50.4277C91.9747 49.8158 91.5125 49.0703 91.1674 48.1914C90.8224 47.306 90.6499 46.3099 90.6499 45.2031C90.6499 44.0964 90.8191 43.0938 91.1577 42.1953C91.4962 41.2904 91.965 40.5124 92.5639 39.8613C93.1564 39.2168 93.8563 38.7188 94.6635 38.3672C95.4708 38.0156 96.3335 37.8398 97.2514 37.8398C97.935 37.8398 98.5535 37.9245 99.1069 38.0938C99.6603 38.263 100.188 38.5007 100.689 38.8066L101.089 38.1426H101.871L101.958 43.084H101.158C101.054 42.6022 100.897 42.0814 100.689 41.5215C100.481 40.9551 100.236 40.4766 99.9565 40.0859C99.644 39.6432 99.2729 39.2982 98.8432 39.0508C98.4135 38.7969 97.922 38.6699 97.3686 38.6699C96.7371 38.6699 96.1479 38.8099 95.601 39.0898C95.0607 39.3698 94.5919 39.7832 94.1948 40.3301C93.8172 40.8574 93.521 41.528 93.3061 42.3418C93.0913 43.1556 92.9839 44.0638 92.9839 45.0664C92.9839 45.9518 93.0945 46.7656 93.3159 47.5078C93.5438 48.2435 93.866 48.8913 94.2827 49.4512C94.6994 50.0046 95.1909 50.4375 95.7573 50.75C96.3302 51.0625 96.9682 51.2188 97.6714 51.2188C98.1987 51.2188 98.6837 51.1374 99.1264 50.9746C99.5691 50.8053 99.9533 50.584 100.279 50.3105C100.604 50.0241 100.891 49.6986 101.138 49.334C101.386 48.9694 101.587 48.5723 101.744 48.1426L102.476 48.4941C101.916 49.8678 101.174 50.8509 100.249 51.4434C99.325 52.0293 98.2247 52.3223 96.9487 52.3223ZM113.902 52H109.175V51.3555C109.325 51.3424 109.491 51.3294 109.673 51.3164C109.856 51.3034 110.005 51.2773 110.123 51.2383C110.305 51.1797 110.438 51.0788 110.523 50.9355C110.614 50.7858 110.66 50.5938 110.66 50.3594V45.4082C110.66 44.7246 110.497 44.1973 110.171 43.8262C109.852 43.4551 109.462 43.2695 108.999 43.2695C108.661 43.2695 108.345 43.3249 108.052 43.4355C107.766 43.5397 107.509 43.6699 107.281 43.8262C107.059 43.9889 106.89 44.1517 106.773 44.3145C106.656 44.4772 106.565 44.6139 106.499 44.7246V50.2617C106.499 50.4831 106.542 50.6654 106.626 50.8086C106.718 50.9518 106.854 51.0625 107.037 51.1406C107.18 51.2057 107.326 51.2546 107.476 51.2871C107.632 51.3197 107.802 51.3424 107.984 51.3555V52H103.257V51.3555C103.407 51.3424 103.563 51.3294 103.726 51.3164C103.889 51.2969 104.026 51.2708 104.136 51.2383C104.318 51.1797 104.455 51.0788 104.546 50.9355C104.638 50.7858 104.683 50.5938 104.683 50.3594V39.1484C104.683 38.9271 104.631 38.7057 104.527 38.4844C104.429 38.263 104.299 38.097 104.136 37.9863C104.019 37.9017 103.811 37.8431 103.511 37.8105C103.218 37.7715 102.981 37.7454 102.798 37.7324V37.1074L106.363 36.8828L106.499 37.0293V43.748H106.539C106.753 43.5332 106.949 43.3444 107.124 43.1816C107.3 43.0124 107.531 42.8366 107.818 42.6543C108.065 42.498 108.355 42.3678 108.687 42.2637C109.026 42.1595 109.403 42.1074 109.82 42.1074C110.679 42.1074 111.34 42.3809 111.802 42.9277C112.264 43.4681 112.496 44.2493 112.496 45.2715V50.2812C112.496 50.5091 112.535 50.6947 112.613 50.8379C112.697 50.9746 112.834 51.082 113.023 51.1602C113.173 51.2188 113.306 51.2643 113.423 51.2969C113.547 51.3229 113.707 51.3424 113.902 51.3555V52ZM119.761 52H115.103V51.3555C115.253 51.3424 115.406 51.3294 115.562 51.3164C115.725 51.3034 115.865 51.2773 115.982 51.2383C116.164 51.1797 116.298 51.0788 116.382 50.9355C116.473 50.7858 116.519 50.5938 116.519 50.3594V44.4121C116.519 44.2038 116.47 44.015 116.373 43.8457C116.281 43.6699 116.151 43.5234 115.982 43.4062C115.858 43.3281 115.679 43.263 115.445 43.2109C115.21 43.1523 114.996 43.1165 114.8 43.1035V42.4688L118.199 42.2539L118.335 42.3906V50.2422C118.335 50.4701 118.378 50.6589 118.462 50.8086C118.554 50.9583 118.693 51.069 118.882 51.1406C119.026 51.1992 119.165 51.248 119.302 51.2871C119.439 51.3197 119.592 51.3424 119.761 51.3555V52ZM118.531 38.4551C118.531 38.8262 118.407 39.1517 118.16 39.4316C117.919 39.7051 117.619 39.8418 117.261 39.8418C116.929 39.8418 116.639 39.7116 116.392 39.4512C116.151 39.1842 116.031 38.8815 116.031 38.543C116.031 38.1849 116.151 37.8724 116.392 37.6055C116.639 37.3385 116.929 37.2051 117.261 37.2051C117.632 37.2051 117.935 37.332 118.169 37.5859C118.41 37.8333 118.531 38.123 118.531 38.4551ZM129.742 43.5137C130.126 43.9694 130.422 44.5 130.63 45.1055C130.845 45.7044 130.953 46.3913 130.953 47.166C130.953 47.9277 130.826 48.6243 130.572 49.2559C130.318 49.8809 129.983 50.4147 129.566 50.8574C129.13 51.3066 128.645 51.6517 128.111 51.8926C127.577 52.1335 127.011 52.2539 126.412 52.2539C125.832 52.2539 125.357 52.1888 124.986 52.0586C124.615 51.9284 124.312 51.7754 124.078 51.5996H123.999V54.4902C123.999 54.7246 124.045 54.9199 124.136 55.0762C124.227 55.2324 124.367 55.3464 124.556 55.418C124.712 55.4766 124.934 55.5319 125.22 55.584C125.513 55.6426 125.754 55.6751 125.943 55.6816V56.3359H120.562V55.6816C120.764 55.6686 120.959 55.6523 121.148 55.6328C121.337 55.6133 121.506 55.5807 121.656 55.5352C121.851 55.4701 121.988 55.3561 122.066 55.1934C122.144 55.0306 122.183 54.8385 122.183 54.6172V44.373C122.183 44.1777 122.134 43.9889 122.037 43.8066C121.939 43.6243 121.812 43.4779 121.656 43.3672C121.539 43.2891 121.376 43.2305 121.167 43.1914C120.959 43.1458 120.757 43.1165 120.562 43.1035V42.4688L123.843 42.2539L123.98 42.3711V43.4551L124.058 43.4746C124.397 43.084 124.817 42.7585 125.318 42.498C125.819 42.2376 126.317 42.1074 126.812 42.1074C127.411 42.1074 127.958 42.2344 128.453 42.4883C128.954 42.7422 129.384 43.084 129.742 43.5137ZM128.15 50.4375C128.41 50.0339 128.602 49.5651 128.726 49.0312C128.85 48.4974 128.912 47.9017 128.912 47.2441C128.912 46.7624 128.86 46.2708 128.755 45.7695C128.651 45.2682 128.488 44.832 128.267 44.4609C128.046 44.0833 127.756 43.7773 127.398 43.543C127.04 43.3086 126.61 43.1914 126.109 43.1914C125.627 43.1914 125.217 43.2988 124.878 43.5137C124.54 43.722 124.247 43.9727 123.999 44.2656V49.959C124.058 50.1348 124.152 50.3171 124.283 50.5059C124.419 50.6947 124.569 50.8574 124.732 50.9941C124.934 51.1569 125.152 51.2904 125.386 51.3945C125.621 51.4922 125.907 51.541 126.246 51.541C126.61 51.541 126.962 51.4466 127.3 51.2578C127.639 51.0625 127.922 50.7891 128.15 50.4375ZM141.167 43.5137C141.552 43.9694 141.848 44.5 142.056 45.1055C142.271 45.7044 142.378 46.3913 142.378 47.166C142.378 47.9277 142.251 48.6243 141.998 49.2559C141.744 49.8809 141.408 50.4147 140.992 50.8574C140.555 51.3066 140.07 51.6517 139.537 51.8926C139.003 52.1335 138.436 52.2539 137.837 52.2539C137.258 52.2539 136.783 52.1888 136.412 52.0586C136.04 51.9284 135.738 51.7754 135.503 51.5996H135.425V54.4902C135.425 54.7246 135.471 54.9199 135.562 55.0762C135.653 55.2324 135.793 55.3464 135.982 55.418C136.138 55.4766 136.36 55.5319 136.646 55.584C136.939 55.6426 137.18 55.6751 137.369 55.6816V56.3359H131.988V55.6816C132.19 55.6686 132.385 55.6523 132.574 55.6328C132.763 55.6133 132.932 55.5807 133.082 55.5352C133.277 55.4701 133.414 55.3561 133.492 55.1934C133.57 55.0306 133.609 54.8385 133.609 54.6172V44.373C133.609 44.1777 133.56 43.9889 133.462 43.8066C133.365 43.6243 133.238 43.4779 133.082 43.3672C132.964 43.2891 132.802 43.2305 132.593 43.1914C132.385 43.1458 132.183 43.1165 131.988 43.1035V42.4688L135.269 42.2539L135.406 42.3711V43.4551L135.484 43.4746C135.822 43.084 136.242 42.7585 136.744 42.498C137.245 42.2376 137.743 42.1074 138.238 42.1074C138.837 42.1074 139.384 42.2344 139.878 42.4883C140.38 42.7422 140.809 43.084 141.167 43.5137ZM139.576 50.4375C139.836 50.0339 140.028 49.5651 140.152 49.0312C140.276 48.4974 140.337 47.9017 140.337 47.2441C140.337 46.7624 140.285 46.2708 140.181 45.7695C140.077 45.2682 139.914 44.832 139.693 44.4609C139.471 44.0833 139.182 43.7773 138.824 43.543C138.466 43.3086 138.036 43.1914 137.535 43.1914C137.053 43.1914 136.643 43.2988 136.304 43.5137C135.966 43.722 135.673 43.9727 135.425 44.2656V49.959C135.484 50.1348 135.578 50.3171 135.708 50.5059C135.845 50.6947 135.995 50.8574 136.158 50.9941C136.36 51.1569 136.578 51.2904 136.812 51.3945C137.046 51.4922 137.333 51.541 137.671 51.541C138.036 51.541 138.388 51.4466 138.726 51.2578C139.065 51.0625 139.348 50.7891 139.576 50.4375ZM148.472 52H143.814V51.3555C143.964 51.3424 144.117 51.3294 144.273 51.3164C144.436 51.3034 144.576 51.2773 144.693 51.2383C144.875 51.1797 145.009 51.0788 145.093 50.9355C145.184 50.7858 145.23 50.5938 145.23 50.3594V44.4121C145.23 44.2038 145.181 44.015 145.083 43.8457C144.992 43.6699 144.862 43.5234 144.693 43.4062C144.569 43.3281 144.39 43.263 144.156 43.2109C143.921 43.1523 143.707 43.1165 143.511 43.1035V42.4688L146.91 42.2539L147.046 42.3906V50.2422C147.046 50.4701 147.089 50.6589 147.173 50.8086C147.264 50.9583 147.404 51.069 147.593 51.1406C147.736 51.1992 147.876 51.248 148.013 51.2871C148.15 51.3197 148.303 51.3424 148.472 51.3555V52ZM147.242 38.4551C147.242 38.8262 147.118 39.1517 146.871 39.4316C146.63 39.7051 146.33 39.8418 145.972 39.8418C145.64 39.8418 145.35 39.7116 145.103 39.4512C144.862 39.1842 144.742 38.8815 144.742 38.543C144.742 38.1849 144.862 37.8724 145.103 37.6055C145.35 37.3385 145.64 37.2051 145.972 37.2051C146.343 37.2051 146.646 37.332 146.88 37.5859C147.121 37.8333 147.242 38.123 147.242 38.4551ZM160.289 52H155.572V51.3555C155.721 51.3424 155.884 51.3294 156.06 51.3164C156.242 51.3034 156.392 51.2773 156.509 51.2383C156.692 51.1797 156.825 51.0788 156.91 50.9355C157.001 50.7858 157.046 50.5938 157.046 50.3594V45.4082C157.046 44.7246 156.884 44.1973 156.558 43.8262C156.239 43.4551 155.848 43.2695 155.386 43.2695C155.041 43.2695 154.725 43.3249 154.439 43.4355C154.152 43.5397 153.899 43.6699 153.677 43.8262C153.462 43.9759 153.29 44.1387 153.16 44.3145C153.036 44.4837 152.945 44.6204 152.886 44.7246V50.2617C152.886 50.4831 152.932 50.6654 153.023 50.8086C153.114 50.9518 153.251 51.0625 153.433 51.1406C153.57 51.2057 153.716 51.2546 153.873 51.2871C154.035 51.3197 154.201 51.3424 154.371 51.3555V52H149.654V51.3555C149.804 51.3424 149.957 51.3294 150.113 51.3164C150.276 51.3034 150.415 51.2773 150.533 51.2383C150.715 51.1797 150.848 51.0788 150.933 50.9355C151.024 50.7858 151.07 50.5938 151.07 50.3594V44.4121C151.07 44.1908 151.021 43.9889 150.923 43.8066C150.832 43.6178 150.702 43.4648 150.533 43.3477C150.409 43.2695 150.263 43.2142 150.093 43.1816C149.924 43.1426 149.742 43.1165 149.546 43.1035V42.4688L152.749 42.2539L152.886 42.3906V43.748H152.935C153.091 43.5918 153.287 43.4062 153.521 43.1914C153.755 42.9701 153.977 42.791 154.185 42.6543C154.426 42.498 154.712 42.3678 155.044 42.2637C155.376 42.1595 155.751 42.1074 156.167 42.1074C157.092 42.1074 157.776 42.3971 158.218 42.9766C158.667 43.5495 158.892 44.3145 158.892 45.2715V50.2812C158.892 50.5091 158.931 50.6947 159.009 50.8379C159.087 50.9746 159.221 51.082 159.41 51.1602C159.566 51.2253 159.699 51.2708 159.81 51.2969C159.927 51.3229 160.087 51.3424 160.289 51.3555V52ZM169.722 51.0039C169.983 51.2513 170.188 51.5312 170.337 51.8438C170.487 52.1562 170.562 52.5436 170.562 53.0059C170.562 53.4681 170.461 53.901 170.259 54.3047C170.057 54.7148 169.751 55.0697 169.341 55.3691C168.905 55.6751 168.384 55.9128 167.779 56.082C167.173 56.2513 166.425 56.3359 165.533 56.3359C164.074 56.3359 162.984 56.1211 162.261 55.6914C161.539 55.2682 161.177 54.6465 161.177 53.8262C161.177 53.1621 161.438 52.638 161.958 52.2539C162.479 51.8698 163.143 51.6615 163.951 51.6289V51.4922C163.755 51.4336 163.554 51.362 163.345 51.2773C163.137 51.1862 162.958 51.082 162.808 50.9648C162.639 50.8281 162.502 50.6686 162.398 50.4863C162.294 50.2975 162.242 50.0664 162.242 49.793C162.242 49.4479 162.362 49.1322 162.603 48.8457C162.85 48.5527 163.221 48.3021 163.716 48.0938V47.9473C163.091 47.6543 162.606 47.2799 162.261 46.8242C161.916 46.362 161.744 45.8281 161.744 45.2227C161.744 44.3112 162.082 43.5625 162.759 42.9766C163.443 42.3906 164.315 42.0977 165.376 42.0977C165.669 42.0977 165.959 42.127 166.246 42.1855C166.539 42.2441 166.835 42.319 167.134 42.4102H170.494V43.3477H168.228V43.4062C168.469 43.6862 168.648 43.9954 168.765 44.334C168.882 44.6725 168.941 45.0046 168.941 45.3301C168.941 46.1764 168.596 46.8926 167.906 47.4785C167.222 48.0645 166.425 48.3574 165.513 48.3574H164.332C164.182 48.4095 164.026 48.5039 163.863 48.6406C163.7 48.7773 163.619 48.9629 163.619 49.1973C163.619 49.4382 163.687 49.6237 163.824 49.7539C163.96 49.8776 164.126 49.9622 164.322 50.0078C164.511 50.0599 164.729 50.0924 164.976 50.1055C165.23 50.1185 165.49 50.1283 165.757 50.1348C166.044 50.1413 166.434 50.1608 166.929 50.1934C167.43 50.2259 167.785 50.2454 167.994 50.252C168.293 50.265 168.593 50.3366 168.892 50.4668C169.198 50.597 169.475 50.776 169.722 51.0039ZM167.085 45.291C167.085 44.5293 166.929 43.9238 166.617 43.4746C166.311 43.0189 165.878 42.791 165.318 42.791C165.012 42.791 164.748 42.8561 164.527 42.9863C164.312 43.11 164.136 43.2891 163.999 43.5234C163.869 43.7383 163.775 43.9987 163.716 44.3047C163.664 44.6042 163.638 44.9134 163.638 45.2324C163.638 45.9551 163.794 46.5443 164.107 47C164.426 47.4557 164.836 47.6836 165.337 47.6836C165.897 47.6836 166.327 47.459 166.626 47.0098C166.932 46.554 167.085 45.9811 167.085 45.291ZM168.96 53.3672C168.96 53.0026 168.876 52.7031 168.707 52.4688C168.537 52.2344 168.28 52.0749 167.935 51.9902C167.753 51.9642 167.378 51.9349 166.812 51.9023C166.246 51.8698 165.588 51.8535 164.839 51.8535C164.136 51.9902 163.635 52.2181 163.335 52.5371C163.042 52.8626 162.896 53.2793 162.896 53.7871C162.896 54.015 162.945 54.2331 163.042 54.4414C163.14 54.6497 163.309 54.8418 163.55 55.0176C163.778 55.1868 164.084 55.3236 164.468 55.4277C164.852 55.5384 165.321 55.5938 165.874 55.5938C166.832 55.5938 167.583 55.4082 168.13 55.0371C168.684 54.6725 168.96 54.1159 168.96 53.3672ZM190.962 38.8359C190.78 38.8424 190.5 38.8945 190.123 38.9922C189.745 39.0898 189.475 39.1908 189.312 39.2949C189.078 39.4577 188.918 39.7702 188.833 40.2324C188.755 40.6947 188.716 41.2806 188.716 41.9902V52.1367H187.867L179.468 40.7988V47.9473C179.468 48.748 179.517 49.3633 179.615 49.793C179.719 50.2227 179.875 50.5286 180.083 50.7109C180.233 50.8542 180.542 50.9876 181.011 51.1113C181.48 51.235 181.789 51.3001 181.939 51.3066V52H176.255V51.3066C176.431 51.2936 176.727 51.2318 177.144 51.1211C177.561 51.0039 177.821 50.8997 177.925 50.8086C178.153 50.6263 178.309 50.3496 178.394 49.9785C178.479 49.6009 178.521 48.9596 178.521 48.0547V41.2285C178.521 40.929 178.469 40.6296 178.365 40.3301C178.261 40.0306 178.121 39.7995 177.945 39.6367C177.71 39.4219 177.391 39.2396 176.988 39.0898C176.591 38.9336 176.268 38.849 176.021 38.8359V38.1426H179.976L187.769 48.709V42.1172C187.769 41.3099 187.717 40.6914 187.613 40.2617C187.509 39.8255 187.359 39.5358 187.164 39.3926C186.981 39.2689 186.682 39.1484 186.265 39.0312C185.855 38.9141 185.542 38.849 185.328 38.8359V38.1426H190.962V38.8359ZM201.226 47.0879C201.226 47.765 201.119 48.4323 200.904 49.0898C200.689 49.7409 200.383 50.2943 199.986 50.75C199.537 51.2708 199.016 51.6582 198.423 51.9121C197.831 52.166 197.167 52.293 196.431 52.293C195.819 52.293 195.236 52.179 194.683 51.9512C194.13 51.7168 193.638 51.3783 193.208 50.9355C192.785 50.4993 192.447 49.9688 192.193 49.3438C191.945 48.7122 191.822 48.0059 191.822 47.2246C191.822 45.7207 192.258 44.4902 193.13 43.5332C194.009 42.5762 195.158 42.0977 196.578 42.0977C197.925 42.0977 199.035 42.5534 199.908 43.4648C200.787 44.3698 201.226 45.5775 201.226 47.0879ZM199.205 47.1074C199.205 46.6191 199.156 46.1048 199.058 45.5645C198.96 45.0176 198.814 44.5553 198.619 44.1777C198.41 43.7741 198.137 43.4518 197.798 43.2109C197.46 42.9635 197.046 42.8398 196.558 42.8398C196.057 42.8398 195.627 42.9635 195.269 43.2109C194.917 43.4583 194.631 43.7969 194.41 44.2266C194.201 44.6237 194.055 45.0762 193.97 45.584C193.886 46.0918 193.843 46.5833 193.843 47.0586C193.843 47.6836 193.892 48.263 193.99 48.7969C194.094 49.3242 194.257 49.7962 194.478 50.2129C194.699 50.6296 194.976 50.9583 195.308 51.1992C195.647 51.4336 196.063 51.5508 196.558 51.5508C197.372 51.5508 198.016 51.1569 198.492 50.3691C198.967 49.5814 199.205 48.4941 199.205 47.1074ZM209.996 43.6113C209.996 43.9434 209.914 44.2396 209.751 44.5C209.589 44.7539 209.338 44.8809 208.999 44.8809C208.635 44.8809 208.355 44.7865 208.16 44.5977C207.971 44.4089 207.876 44.2005 207.876 43.9727C207.876 43.8294 207.886 43.6992 207.906 43.582C207.932 43.4648 207.955 43.3477 207.974 43.2305C207.668 43.2305 207.31 43.3542 206.9 43.6016C206.49 43.849 206.141 44.2005 205.855 44.6562V50.2617C205.855 50.4896 205.897 50.6751 205.982 50.8184C206.073 50.9616 206.213 51.069 206.402 51.1406C206.565 51.2057 206.773 51.2546 207.027 51.2871C207.287 51.3197 207.512 51.3424 207.701 51.3555V52H202.623V51.3555C202.772 51.3424 202.925 51.3294 203.082 51.3164C203.244 51.3034 203.384 51.2773 203.501 51.2383C203.684 51.1797 203.817 51.0788 203.902 50.9355C203.993 50.7858 204.039 50.5938 204.039 50.3594V44.4121C204.039 44.2103 203.99 44.0117 203.892 43.8164C203.801 43.6211 203.671 43.4648 203.501 43.3477C203.378 43.2695 203.231 43.2142 203.062 43.1816C202.893 43.1426 202.71 43.1165 202.515 43.1035V42.4688L205.718 42.2539L205.855 42.3906V43.748H205.904C206.307 43.2207 206.757 42.8203 207.251 42.5469C207.746 42.2734 208.199 42.1367 208.609 42.1367C209.019 42.1367 209.351 42.2702 209.605 42.5371C209.865 42.804 209.996 43.1621 209.996 43.6113ZM216.773 51.5801C216.35 51.7559 215.949 51.9023 215.572 52.0195C215.194 52.1432 214.732 52.2051 214.185 52.2051C213.378 52.2051 212.808 52.0033 212.476 51.5996C212.151 51.1895 211.988 50.6133 211.988 49.8711V43.3477H210.249V42.4102H212.027V39.4121H213.804V42.4102H216.568V43.3477H213.824V48.7285C213.824 49.1322 213.837 49.4707 213.863 49.7441C213.895 50.0111 213.967 50.2454 214.078 50.4473C214.182 50.6361 214.338 50.7793 214.546 50.877C214.755 50.9746 215.035 51.0234 215.386 51.0234C215.549 51.0234 215.787 51.0104 216.099 50.9844C216.418 50.9518 216.643 50.9128 216.773 50.8672V51.5801ZM227.124 47.0879C227.124 47.765 227.017 48.4323 226.802 49.0898C226.587 49.7409 226.281 50.2943 225.884 50.75C225.435 51.2708 224.914 51.6582 224.322 51.9121C223.729 52.166 223.065 52.293 222.33 52.293C221.718 52.293 221.135 52.179 220.582 51.9512C220.028 51.7168 219.537 51.3783 219.107 50.9355C218.684 50.4993 218.345 49.9688 218.091 49.3438C217.844 48.7122 217.72 48.0059 217.72 47.2246C217.72 45.7207 218.156 44.4902 219.029 43.5332C219.908 42.5762 221.057 42.0977 222.476 42.0977C223.824 42.0977 224.934 42.5534 225.806 43.4648C226.685 44.3698 227.124 45.5775 227.124 47.0879ZM225.103 47.1074C225.103 46.6191 225.054 46.1048 224.957 45.5645C224.859 45.0176 224.712 44.5553 224.517 44.1777C224.309 43.7741 224.035 43.4518 223.697 43.2109C223.358 42.9635 222.945 42.8398 222.457 42.8398C221.955 42.8398 221.526 42.9635 221.167 43.2109C220.816 43.4583 220.529 43.7969 220.308 44.2266C220.1 44.6237 219.953 45.0762 219.869 45.584C219.784 46.0918 219.742 46.5833 219.742 47.0586C219.742 47.6836 219.79 48.263 219.888 48.7969C219.992 49.3242 220.155 49.7962 220.376 50.2129C220.598 50.6296 220.874 50.9583 221.207 51.1992C221.545 51.4336 221.962 51.5508 222.457 51.5508C223.27 51.5508 223.915 51.1569 224.39 50.3691C224.865 49.5814 225.103 48.4941 225.103 47.1074ZM239.156 52H234.439V51.3555C234.589 51.3424 234.751 51.3294 234.927 51.3164C235.11 51.3034 235.259 51.2773 235.376 51.2383C235.559 51.1797 235.692 51.0788 235.777 50.9355C235.868 50.7858 235.914 50.5938 235.914 50.3594V45.4082C235.914 44.7246 235.751 44.1973 235.425 43.8262C235.106 43.4551 234.716 43.2695 234.253 43.2695C233.908 43.2695 233.593 43.3249 233.306 43.4355C233.02 43.5397 232.766 43.6699 232.544 43.8262C232.33 43.9759 232.157 44.1387 232.027 44.3145C231.903 44.4837 231.812 44.6204 231.753 44.7246V50.2617C231.753 50.4831 231.799 50.6654 231.89 50.8086C231.981 50.9518 232.118 51.0625 232.3 51.1406C232.437 51.2057 232.583 51.2546 232.74 51.2871C232.902 51.3197 233.068 51.3424 233.238 51.3555V52H228.521V51.3555C228.671 51.3424 228.824 51.3294 228.98 51.3164C229.143 51.3034 229.283 51.2773 229.4 51.2383C229.582 51.1797 229.716 51.0788 229.8 50.9355C229.891 50.7858 229.937 50.5938 229.937 50.3594V44.4121C229.937 44.1908 229.888 43.9889 229.79 43.8066C229.699 43.6178 229.569 43.4648 229.4 43.3477C229.276 43.2695 229.13 43.2142 228.96 43.1816C228.791 43.1426 228.609 43.1165 228.414 43.1035V42.4688L231.617 42.2539L231.753 42.3906V43.748H231.802C231.958 43.5918 232.154 43.4062 232.388 43.1914C232.623 42.9701 232.844 42.791 233.052 42.6543C233.293 42.498 233.58 42.3678 233.912 42.2637C234.244 42.1595 234.618 42.1074 235.035 42.1074C235.959 42.1074 236.643 42.3971 237.085 42.9766C237.535 43.5495 237.759 44.3145 237.759 45.2715V50.2812C237.759 50.5091 237.798 50.6947 237.876 50.8379C237.955 50.9746 238.088 51.082 238.277 51.1602C238.433 51.2253 238.567 51.2708 238.677 51.2969C238.794 51.3229 238.954 51.3424 239.156 51.3555V52Z"/></svg>