<svg width="331" height="55" viewBox="0 0 331 55" fill="none" xmlns="http://www.w3.org/2000/svg">
<path d="M29.3824 43.5417H19.8056C19.1448 43.5417 18.6085 44.055 18.6085 44.6875C18.6085 45.32 19.1448 45.8333 19.8056 45.8333H29.3824C30.0432 45.8333 30.5794 45.32 30.5794 44.6875C30.5794 44.055 30.0432 43.5417 29.3824 43.5417ZM29.3824 48.125H19.8056C19.1448 48.125 18.6085 48.6383 18.6085 49.2708C18.6085 49.9033 19.1448 50.4167 19.8056 50.4167H29.3824C30.0432 50.4167 30.5794 49.9033 30.5794 49.2708C30.5794 48.6383 30.0432 48.125 29.3824 48.125ZM29.9809 52.7083H19.2071L22.0514 54.5004C22.4201 54.8167 22.9612 55 23.5238 55H25.6666C26.2268 55 26.7703 54.8167 27.139 54.5004L29.9809 52.7083ZM38.9591 21.0856C38.9591 29.2646 31.2642 34.7967 31.2642 41.25H17.9238C17.9238 34.7967 10.2289 29.2646 10.2289 21.0856C10.2289 12.5538 17.4067 7.85813 24.5868 7.85813C31.7717 7.85813 38.9591 12.5583 38.9591 21.0856ZM48.5358 19.5021V22.6463H42.4594C42.5073 22.1352 42.5504 21.6196 42.5504 21.0856C42.5504 20.5425 42.5097 20.0223 42.4666 19.5044H48.5358V19.5021ZM23.0426 4.48479V0H26.325V4.50083C25.7456 4.45042 25.1662 4.42063 24.5868 4.42063C24.0721 4.42063 23.5573 4.44354 23.0426 4.48479ZM36.2608 8.02313L40.0197 4.02875L42.4594 6.1325L38.6215 10.2048C38.023 9.52417 37.2018 8.66479 36.2608 8.02313ZM10.5521 10.2048L6.71424 6.1325L9.15392 4.02875L12.9128 8.02313C11.9743 8.66479 11.1507 9.52417 10.5521 10.2048ZM6.72861 22.6463H0.652176V19.5021H6.72143C6.67833 20.02 6.63763 20.5425 6.63763 21.0856C6.63763 21.6196 6.68073 22.1352 6.72861 22.6463Z" fill="#EE540C"/>
<path d="M56.8591 52.7879C63.2474 52.7879 67.6203 49.6368 67.6203 44.8559V44.6385C67.6203 40.3284 64.3881 38.119 57.9238 37.0687C52.6003 36.1994 51.8018 35.1852 51.8018 33.5554V33.4829C51.8018 31.672 53.2847 30.3681 56.3268 30.3681C59.3688 30.3681 61.27 31.6719 61.5742 34.316H67.164C66.7076 28.9917 62.4868 26.1304 56.4408 26.1304C50.3568 26.1304 46.2501 29.1004 46.2501 33.6278V33.8451C46.2501 37.8655 48.7978 40.256 55.3761 41.415C60.6236 42.3567 62.0686 43.2622 62.0686 45.1818V45.3267C62.0686 47.4274 60.1673 48.514 57.0112 48.514C53.5889 48.514 51.3074 47.0652 50.9272 43.9866H45.3375C45.6797 49.5282 49.9765 52.7879 56.8591 52.7879Z" fill="white"/>
<path d="M75.8955 52.3171V42.1394C75.8955 38.8434 77.4165 37.2135 79.8121 37.2135C82.0176 37.2135 83.0062 38.6623 83.0062 41.3788V52.3171H88.3297V42.1394C88.3297 38.9159 89.7367 37.2135 92.1323 37.2135C94.2997 37.2135 95.4024 38.5899 95.4024 41.3426V52.3171H100.726V40.3646C100.726 36.0183 98.7487 33.157 94.0716 33.157C91.2197 33.157 89.0522 34.4971 87.6833 36.6702C86.7327 34.316 84.7174 33.157 81.7894 33.157C78.7474 33.157 76.8081 34.7868 75.8575 36.4891L75.7054 33.6278H70.572V52.3171H75.8955Z" fill="white"/>
<path d="M110.144 52.7879C113.034 52.7879 115.315 51.484 116.494 49.4557L116.684 52.3171H121.589V39.5678C121.589 35.6561 118.471 33.157 113.186 33.157C108.09 33.157 104.63 35.4026 104.326 39.3867H109.345C109.535 37.793 110.904 36.9962 113.072 36.9962C115.391 36.9962 116.456 37.9379 116.456 39.4954V40.582L109.231 41.5599C105.657 42.0307 103.527 43.9141 103.527 47.1015C103.527 50.3974 106.189 52.7879 110.144 52.7879ZM111.741 48.9849C109.802 48.9849 108.661 48.1881 108.661 46.8479C108.661 45.544 109.497 44.8921 111.132 44.6748L116.456 43.9866V45.4716C116.456 47.5361 114.327 48.9849 111.741 48.9849Z" fill="white"/>
<path d="M130.557 52.3171V43.2984C130.557 40.0024 132.42 38.1915 135.956 38.1915C136.451 38.1915 137.059 38.2277 137.439 38.2639V33.4105C137.135 33.338 136.641 33.3018 136.261 33.3018C133.371 33.3018 131.431 35.0041 130.481 37.2498L130.367 33.6278H125.233V52.3171H130.557Z" fill="white"/>
<path d="M150.03 52.7879C151.171 52.7879 152.654 52.6068 153.566 52.3171V48.4416C153.034 48.5865 152.159 48.8038 151.209 48.8038C149.155 48.8038 148.395 48.1156 148.395 46.4857V37.3222H153.49V33.6278H148.395V27.6878H143.071V33.6278H139.421V37.3222H143.071V46.9204C143.071 50.7596 145.315 52.7879 150.03 52.7879Z" fill="white"/>
<path d="M167.906 52.7879C173.153 52.7879 176.424 48.7676 176.424 43.1898V42.7189C176.424 37.2135 173.267 33.157 168.058 33.157C165.168 33.157 163.115 34.4609 161.936 36.127V25.5146H156.574V52.3171H161.556L161.708 49.3833C162.582 51.0494 164.674 52.7879 167.906 52.7879ZM166.385 48.8762C163.381 48.8762 161.746 46.8479 161.746 43.1898V42.7189C161.746 39.0607 163.381 37.0324 166.385 37.0324C169.427 37.0324 171.024 39.0607 171.024 42.7189V43.1898C171.024 46.8479 169.427 48.8762 166.385 48.8762Z" fill="white"/>
<path d="M188.99 52.7879C195.074 52.7879 199.066 48.8762 199.066 43.1898V42.7551C199.066 37.0687 195.074 33.157 188.99 33.157C182.906 33.157 178.913 37.0687 178.913 42.7189V43.1898C178.913 48.8762 182.906 52.7879 188.99 52.7879ZM188.99 48.84C185.872 48.84 184.313 46.8479 184.313 43.1898V42.7189C184.313 39.097 185.872 37.1049 188.99 37.1049C192.108 37.1049 193.667 39.097 193.667 42.7551V43.1898C193.667 46.8479 192.108 48.84 188.99 48.84Z" fill="white"/>
<path d="M211.567 52.7879C217.651 52.7879 221.644 48.8762 221.644 43.1898V42.7551C221.644 37.0687 217.651 33.157 211.567 33.157C205.483 33.157 201.49 37.0687 201.49 42.7189V43.1898C201.49 48.8762 205.483 52.7879 211.567 52.7879ZM211.567 48.84C208.449 48.84 206.89 46.8479 206.89 43.1898V42.7189C206.89 39.097 208.449 37.1049 211.567 37.1049C214.685 37.1049 216.244 39.097 216.244 42.7551V43.1898C216.244 46.8479 214.685 48.84 211.567 48.84Z" fill="white"/>
<path d="M231.939 43.8779L237.643 52.3171H243.575L235.704 40.7993L243.271 33.6278H237.035L230.076 40.3284V25.5146H224.752V52.3171H230.076V45.6527L231.939 43.8779Z" fill="white"/>
<path d="M252.608 52.7879C257.893 52.7879 261.24 50.325 261.24 46.6306C261.24 43.3709 258.996 41.741 253.673 40.9441C250.326 40.4371 249.338 39.8213 249.338 38.6623C249.338 37.4309 250.517 36.7065 252.342 36.7065C254.319 36.7065 255.65 37.5757 255.878 39.2056H260.859C260.555 35.3663 257.475 33.157 252.418 33.157C247.627 33.157 244.242 35.475 244.242 38.9883C244.242 42.3567 246.562 43.8779 251.581 44.6748C255.118 45.2543 256.03 45.9424 256.03 47.1015C256.03 48.4416 254.661 49.166 252.646 49.166C250.479 49.166 248.996 48.2243 248.691 46.3771H243.596C243.938 50.4337 247.132 52.7879 252.608 52.7879Z" fill="white"/>
<path d="M274.316 52.7879C280.324 52.7879 284.506 49.8179 284.506 45.2905V44.8921C284.506 41.741 282.263 39.5678 279.373 38.8434C281.845 38.0104 283.556 35.9459 283.556 33.4105V33.0845C283.556 28.883 279.563 26.1304 274.316 26.1304C268.878 26.1304 264.771 29.3539 264.543 34.3522H269.905C270.057 31.8531 271.616 30.4043 274.354 30.4043C276.749 30.4043 278.232 31.7082 278.232 33.4829V33.8813C278.232 35.8372 276.597 36.96 274.24 36.96H271.578V40.9804H274.278C277.015 40.9804 278.727 42.2843 278.727 44.4937V44.8921C278.727 47.029 277.015 48.4054 274.24 48.4054C271.35 48.4054 269.715 46.9566 269.524 44.385H263.935C264.087 49.5644 268.079 52.7879 274.316 52.7879Z" fill="#EE540C"/>
<path d="M297.455 52.7879C303.311 52.7879 307.38 49.166 307.38 44.059V43.6606C307.38 38.8072 303.501 35.6923 298.71 35.6923C295.744 35.6923 293.463 36.8513 292.208 38.771V38.0466C292.208 32.6861 294.223 30.3681 297.531 30.3681C299.813 30.3681 301.334 31.5271 301.79 33.5554H307.19C306.543 28.9555 302.893 26.1304 297.493 26.1304C291.029 26.1304 286.96 30.7302 286.96 38.9521V40.256C286.96 48.1881 290.953 52.7879 297.455 52.7879ZM297.455 48.5865C294.756 48.5865 293.121 46.7755 293.121 44.2401V43.8779C293.121 41.4874 294.794 39.7851 297.417 39.7851C300.003 39.7851 301.638 41.4874 301.638 43.8417V44.2401C301.638 46.8479 300.079 48.5865 297.455 48.5865Z" fill="#EE540C"/>
<path d="M320.472 52.7879C327.469 52.7879 330.663 47.5361 330.663 39.8213V39.097C330.663 31.4184 327.469 26.1304 320.472 26.1304C313.704 26.1304 310.32 31.4184 310.32 39.097V39.8213C310.32 47.5361 313.704 52.7879 320.472 52.7879ZM320.472 48.4778C317.202 48.4778 316.099 45.7613 316.099 39.93V39.0607C316.099 33.1932 317.202 30.4405 320.472 30.4405C323.971 30.4405 324.883 33.1932 324.883 39.0607V39.93C324.883 45.7613 323.971 48.4778 320.472 48.4778Z" fill="#EE540C"/>
</svg>
