<svg width="44" height="44" viewBox="0 0 44 44" fill="none" xmlns="http://www.w3.org/2000/svg">
<mask id="mask0_401_74" style="mask-type:alpha" maskUnits="userSpaceOnUse" x="0" y="0" width="44" height="44">
<rect width="44" height="44" fill="#D9D9D9"/>
</mask>
<g mask="url(#mask0_401_74)">
<path d="M6.87505 36.3913C6.08085 36.3913 5.40105 36.1013 4.83565 35.5212C4.27025 34.9404 3.98755 34.2679 3.98755 33.5038V10.4962C3.98755 9.73207 4.27025 9.0596 4.83565 8.4788C5.40105 7.89874 6.08085 7.6087 6.87505 7.6087H37.125C37.9193 7.6087 38.599 7.89874 39.1644 8.4788C39.7299 9.0596 40.0126 9.73207 40.0126 10.4962V33.5038C40.0126 34.2679 39.7299 34.9404 39.1644 35.5212C38.599 36.1013 37.9193 36.3913 37.125 36.3913H6.87505ZM22 22.7788C22.1526 22.7788 22.2824 22.7561 22.3895 22.7106C22.4965 22.6644 22.6263 22.6109 22.7788 22.55L36.6213 13.6125C36.7738 13.49 36.8959 13.3525 36.9875 13.2C37.0792 13.0475 37.125 12.8641 37.125 12.65C37.125 12.2225 36.934 11.8789 36.5519 11.6193C36.1699 11.359 35.7805 11.3663 35.3837 11.6413L22 20.1212L8.66255 11.6413C8.26508 11.3971 7.86798 11.3821 7.47125 11.5962C7.07378 11.8096 6.87505 12.1455 6.87505 12.6038C6.87505 12.8179 6.92858 13.009 7.03565 13.1769C7.14272 13.3448 7.25712 13.49 7.37885 13.6125L21.2663 22.55C21.3888 22.6109 21.5036 22.6644 21.6106 22.7106C21.7177 22.7561 21.8475 22.7788 22 22.7788Z" fill="white"/>
</g>
</svg>
